<svg xmlns="http://www.w3.org/2000/svg" width="920" height="560" viewBox="0 0 920 560">
<rect width="100%" height="100%" fill="white"/>
<text x="460" y="28" text-anchor="middle" font-family="sans-serif" font-size="18">GPU-only Pareto: direct backend vs mock vs DES batched</text>
<line x1="64" y1="496" x2="856" y2="496" stroke="#111827"/>
<line x1="64" y1="64" x2="64" y2="496" stroke="#111827"/>
<text x="460" y="542" text-anchor="middle" font-family="sans-serif" font-size="13">interactivity (tok/s/user)</text>
<text x="18" y="280" text-anchor="middle" transform="rotate(-90 18 280)" font-family="sans-serif" font-size="13">output tok/s/GPU</text>
<polyline points="64.02,64.00 174.35,200.61 278.63,310.81 391.00,383.22 403.71,393.73 424.89,416.78 439.66,435.27 456.10,440.72 480.47,453.10 488.91,463.46 512.74,466.13 534.09,472.98 559.81,478.18 566.59,480.03 588.66,483.72 639.28,486.24 660.77,487.12 680.44,489.21 704.68,490.79 726.67,491.27 742.11,492.42 748.63,493.32 770.80,493.57 782.92,494.17 797.94,494.79 807.31,495.11 818.91,495.43 819.47,495.59 835.06,495.75 836.82,495.83 844.91,495.92 856.00,496.00" fill="none" stroke="#111827" stroke-width="2"/>
<circle cx="64.02" cy="64.00" r="3" fill="#111827"/>
<circle cx="174.35" cy="200.61" r="3" fill="#111827"/>
<circle cx="278.63" cy="310.81" r="3" fill="#111827"/>
<circle cx="391.00" cy="383.22" r="3" fill="#111827"/>
<circle cx="403.71" cy="393.73" r="3" fill="#111827"/>
<circle cx="424.89" cy="416.78" r="3" fill="#111827"/>
<circle cx="439.66" cy="435.27" r="3" fill="#111827"/>
<circle cx="456.10" cy="440.72" r="3" fill="#111827"/>
<circle cx="480.47" cy="453.10" r="3" fill="#111827"/>
<circle cx="488.91" cy="463.46" r="3" fill="#111827"/>
<circle cx="512.74" cy="466.13" r="3" fill="#111827"/>
<circle cx="534.09" cy="472.98" r="3" fill="#111827"/>
<circle cx="559.81" cy="478.18" r="3" fill="#111827"/>
<circle cx="566.59" cy="480.03" r="3" fill="#111827"/>
<circle cx="588.66" cy="483.72" r="3" fill="#111827"/>
<circle cx="639.28" cy="486.24" r="3" fill="#111827"/>
<circle cx="660.77" cy="487.12" r="3" fill="#111827"/>
<circle cx="680.44" cy="489.21" r="3" fill="#111827"/>
<circle cx="704.68" cy="490.79" r="3" fill="#111827"/>
<circle cx="726.67" cy="491.27" r="3" fill="#111827"/>
<circle cx="742.11" cy="492.42" r="3" fill="#111827"/>
<circle cx="748.63" cy="493.32" r="3" fill="#111827"/>
<circle cx="770.80" cy="493.57" r="3" fill="#111827"/>
<circle cx="782.92" cy="494.17" r="3" fill="#111827"/>
<circle cx="797.94" cy="494.79" r="3" fill="#111827"/>
<circle cx="807.31" cy="495.11" r="3" fill="#111827"/>
<circle cx="818.91" cy="495.43" r="3" fill="#111827"/>
<circle cx="819.47" cy="495.59" r="3" fill="#111827"/>
<circle cx="835.06" cy="495.75" r="3" fill="#111827"/>
<circle cx="836.82" cy="495.83" r="3" fill="#111827"/>
<circle cx="844.91" cy="495.92" r="3" fill="#111827"/>
<circle cx="856.00" cy="496.00" r="3" fill="#111827"/>
<polyline points="64.00,64.03 174.33,200.62 278.62,310.81 390.99,383.22 403.70,393.73 424.88,416.78 439.65,435.27 456.09,440.72 480.47,453.10 488.91,463.46 512.73,466.13 534.08,472.98 559.81,478.18 566.59,480.03 588.65,483.72 639.28,486.24 660.76,487.12 680.44,489.21 704.68,490.79 726.67,491.27 742.11,492.42 748.63,493.32 770.80,493.57 782.92,494.17 797.94,494.79 807.31,495.11 818.91,495.43 819.47,495.59 835.06,495.75 836.82,495.83 844.91,495.92 856.00,496.00" fill="none" stroke="#2563eb" stroke-width="2"/>
<circle cx="64.00" cy="64.03" r="3" fill="#2563eb"/>
<circle cx="174.33" cy="200.62" r="3" fill="#2563eb"/>
<circle cx="278.62" cy="310.81" r="3" fill="#2563eb"/>
<circle cx="390.99" cy="383.22" r="3" fill="#2563eb"/>
<circle cx="403.70" cy="393.73" r="3" fill="#2563eb"/>
<circle cx="424.88" cy="416.78" r="3" fill="#2563eb"/>
<circle cx="439.65" cy="435.27" r="3" fill="#2563eb"/>
<circle cx="456.09" cy="440.72" r="3" fill="#2563eb"/>
<circle cx="480.47" cy="453.10" r="3" fill="#2563eb"/>
<circle cx="488.91" cy="463.46" r="3" fill="#2563eb"/>
<circle cx="512.73" cy="466.13" r="3" fill="#2563eb"/>
<circle cx="534.08" cy="472.98" r="3" fill="#2563eb"/>
<circle cx="559.81" cy="478.18" r="3" fill="#2563eb"/>
<circle cx="566.59" cy="480.03" r="3" fill="#2563eb"/>
<circle cx="588.65" cy="483.72" r="3" fill="#2563eb"/>
<circle cx="639.28" cy="486.24" r="3" fill="#2563eb"/>
<circle cx="660.76" cy="487.12" r="3" fill="#2563eb"/>
<circle cx="680.44" cy="489.21" r="3" fill="#2563eb"/>
<circle cx="704.68" cy="490.79" r="3" fill="#2563eb"/>
<circle cx="726.67" cy="491.27" r="3" fill="#2563eb"/>
<circle cx="742.11" cy="492.42" r="3" fill="#2563eb"/>
<circle cx="748.63" cy="493.32" r="3" fill="#2563eb"/>
<circle cx="770.80" cy="493.57" r="3" fill="#2563eb"/>
<circle cx="782.92" cy="494.17" r="3" fill="#2563eb"/>
<circle cx="797.94" cy="494.79" r="3" fill="#2563eb"/>
<circle cx="807.31" cy="495.11" r="3" fill="#2563eb"/>
<circle cx="818.91" cy="495.43" r="3" fill="#2563eb"/>
<circle cx="819.47" cy="495.59" r="3" fill="#2563eb"/>
<circle cx="835.06" cy="495.75" r="3" fill="#2563eb"/>
<circle cx="836.82" cy="495.83" r="3" fill="#2563eb"/>
<circle cx="844.91" cy="495.92" r="3" fill="#2563eb"/>
<circle cx="856.00" cy="496.00" r="3" fill="#2563eb"/>
<polyline points="64.00,64.03 174.33,200.62 278.62,310.81 390.99,383.22 403.70,393.73 424.88,416.78 439.65,435.27 456.09,440.72 480.47,453.10 488.91,463.46 512.73,466.13 534.08,472.98 559.81,478.18 566.59,480.03 588.65,483.72 639.28,486.24 660.76,487.12 680.44,489.21 704.68,490.79 726.67,491.27 742.11,492.42 748.63,493.32 770.80,493.57 782.92,494.17 797.94,494.79 807.31,495.11 818.91,495.43 819.47,495.59 835.06,495.75 836.82,495.83 844.91,495.92 856.00,496.00" fill="none" stroke="#0f766e" stroke-width="2"/>
<circle cx="64.00" cy="64.03" r="3" fill="#0f766e"/>
<circle cx="174.33" cy="200.62" r="3" fill="#0f766e"/>
<circle cx="278.62" cy="310.81" r="3" fill="#0f766e"/>
<circle cx="390.99" cy="383.22" r="3" fill="#0f766e"/>
<circle cx="403.70" cy="393.73" r="3" fill="#0f766e"/>
<circle cx="424.88" cy="416.78" r="3" fill="#0f766e"/>
<circle cx="439.65" cy="435.27" r="3" fill="#0f766e"/>
<circle cx="456.09" cy="440.72" r="3" fill="#0f766e"/>
<circle cx="480.47" cy="453.10" r="3" fill="#0f766e"/>
<circle cx="488.91" cy="463.46" r="3" fill="#0f766e"/>
<circle cx="512.73" cy="466.13" r="3" fill="#0f766e"/>
<circle cx="534.08" cy="472.98" r="3" fill="#0f766e"/>
<circle cx="559.81" cy="478.18" r="3" fill="#0f766e"/>
<circle cx="566.59" cy="480.03" r="3" fill="#0f766e"/>
<circle cx="588.65" cy="483.72" r="3" fill="#0f766e"/>
<circle cx="639.28" cy="486.24" r="3" fill="#0f766e"/>
<circle cx="660.76" cy="487.12" r="3" fill="#0f766e"/>
<circle cx="680.44" cy="489.21" r="3" fill="#0f766e"/>
<circle cx="704.68" cy="490.79" r="3" fill="#0f766e"/>
<circle cx="726.67" cy="491.27" r="3" fill="#0f766e"/>
<circle cx="742.11" cy="492.42" r="3" fill="#0f766e"/>
<circle cx="748.63" cy="493.32" r="3" fill="#0f766e"/>
<circle cx="770.80" cy="493.57" r="3" fill="#0f766e"/>
<circle cx="782.92" cy="494.17" r="3" fill="#0f766e"/>
<circle cx="797.94" cy="494.79" r="3" fill="#0f766e"/>
<circle cx="807.31" cy="495.11" r="3" fill="#0f766e"/>
<circle cx="818.91" cy="495.43" r="3" fill="#0f766e"/>
<circle cx="819.47" cy="495.59" r="3" fill="#0f766e"/>
<circle cx="835.06" cy="495.75" r="3" fill="#0f766e"/>
<circle cx="836.82" cy="495.83" r="3" fill="#0f766e"/>
<circle cx="844.91" cy="495.92" r="3" fill="#0f766e"/>
<circle cx="856.00" cy="496.00" r="3" fill="#0f766e"/>
<text x="710" y="36" font-family="sans-serif" font-size="12" fill="#111827">direct</text>
<text x="710" y="54" font-family="sans-serif" font-size="12" fill="#2563eb">mock</text>
<text x="710" y="72" font-family="sans-serif" font-size="12" fill="#0f766e">DES batched</text>
</svg>
