<svg xmlns="http://www.w3.org/2000/svg" width="720" height="360" viewBox="0 0 720 360">
<rect width="100%" height="100%" fill="white"/>
<text x="360" y="24" text-anchor="middle" font-family="sans-serif" font-size="18">TBT distribution</text>
<line x1="48" y1="312" x2="696" y2="312" stroke="#111827"/>
<line x1="48" y1="36" x2="48" y2="312" stroke="#111827"/>
<text x="360" y="350" text-anchor="middle" font-family="sans-serif" font-size="12">TBT (ms)</text>
<text x="14" y="180" text-anchor="middle" transform="rotate(-90 14 180)" font-family="sans-serif" font-size="12">count</text>
<rect x="48.00" y="48.00" width="26.52" height="264.00" fill="#3b82f6"/>
<rect x="79.20" y="312.00" width="26.52" height="0.00" fill="#3b82f6"/>
<rect x="110.40" y="312.00" width="26.52" height="0.00" fill="#3b82f6"/>
<rect x="141.60" y="312.00" width="26.52" height="0.00" fill="#3b82f6"/>
<rect x="172.80" y="312.00" width="26.52" height="0.00" fill="#3b82f6"/>
<rect x="204.00" y="312.00" width="26.52" height="0.00" fill="#3b82f6"/>
<rect x="235.20" y="312.00" width="26.52" height="0.00" fill="#3b82f6"/>
<rect x="266.40" y="312.00" width="26.52" height="0.00" fill="#3b82f6"/>
<rect x="297.60" y="312.00" width="26.52" height="0.00" fill="#3b82f6"/>
<rect x="328.80" y="312.00" width="26.52" height="0.00" fill="#3b82f6"/>
<rect x="360.00" y="312.00" width="26.52" height="0.00" fill="#3b82f6"/>
<rect x="391.20" y="312.00" width="26.52" height="0.00" fill="#3b82f6"/>
<rect x="422.40" y="312.00" width="26.52" height="0.00" fill="#3b82f6"/>
<rect x="453.60" y="312.00" width="26.52" height="0.00" fill="#3b82f6"/>
<rect x="484.80" y="312.00" width="26.52" height="0.00" fill="#3b82f6"/>
<rect x="516.00" y="312.00" width="26.52" height="0.00" fill="#3b82f6"/>
<rect x="547.20" y="312.00" width="26.52" height="0.00" fill="#3b82f6"/>
<rect x="578.40" y="312.00" width="26.52" height="0.00" fill="#3b82f6"/>
<rect x="609.60" y="312.00" width="26.52" height="0.00" fill="#3b82f6"/>
<rect x="640.80" y="312.00" width="26.52" height="0.00" fill="#3b82f6"/>
</svg>
