<svg xmlns="http://www.w3.org/2000/svg" width="980" height="640" viewBox="0 0 980 640">
<rect width="100%" height="100%" fill="white"/>
<text x="490" y="28" text-anchor="middle" font-family="sans-serif" font-size="18">ISL=1,000,000, link=12us: AFD global DES baseline plus Frontier-gap scenarios</text>
<line x1="82" y1="568" x2="730" y2="568" stroke="#111827"/>
<line x1="82" y1="56" x2="82" y2="568" stroke="#111827"/>
<line x1="82.00" y1="568.00" x2="82.00" y2="574.00" stroke="#111827"/>
<line x1="82.00" y1="56.00" x2="82.00" y2="568.00" stroke="#e5e7eb"/>
<text x="82.00" y="592.00" text-anchor="middle" font-family="sans-serif" font-size="11">0</text>
<line x1="211.60" y1="568.00" x2="211.60" y2="574.00" stroke="#111827"/>
<line x1="211.60" y1="56.00" x2="211.60" y2="568.00" stroke="#e5e7eb"/>
<text x="211.60" y="592.00" text-anchor="middle" font-family="sans-serif" font-size="11">200</text>
<line x1="341.20" y1="568.00" x2="341.20" y2="574.00" stroke="#111827"/>
<line x1="341.20" y1="56.00" x2="341.20" y2="568.00" stroke="#e5e7eb"/>
<text x="341.20" y="592.00" text-anchor="middle" font-family="sans-serif" font-size="11">400</text>
<line x1="470.80" y1="568.00" x2="470.80" y2="574.00" stroke="#111827"/>
<line x1="470.80" y1="56.00" x2="470.80" y2="568.00" stroke="#e5e7eb"/>
<text x="470.80" y="592.00" text-anchor="middle" font-family="sans-serif" font-size="11">600</text>
<line x1="600.40" y1="568.00" x2="600.40" y2="574.00" stroke="#111827"/>
<line x1="600.40" y1="56.00" x2="600.40" y2="568.00" stroke="#e5e7eb"/>
<text x="600.40" y="592.00" text-anchor="middle" font-family="sans-serif" font-size="11">800</text>
<line x1="730.00" y1="568.00" x2="730.00" y2="574.00" stroke="#111827"/>
<line x1="730.00" y1="56.00" x2="730.00" y2="568.00" stroke="#e5e7eb"/>
<text x="730.00" y="592.00" text-anchor="middle" font-family="sans-serif" font-size="11">1000</text>
<line x1="76.00" y1="568.00" x2="82.00" y2="568.00" stroke="#111827"/>
<line x1="82.00" y1="568.00" x2="730.00" y2="568.00" stroke="#e5e7eb"/>
<text x="72.00" y="572.00" text-anchor="end" font-family="sans-serif" font-size="11">0</text>
<line x1="76.00" y1="465.60" x2="82.00" y2="465.60" stroke="#111827"/>
<line x1="82.00" y1="465.60" x2="730.00" y2="465.60" stroke="#e5e7eb"/>
<text x="72.00" y="469.60" text-anchor="end" font-family="sans-serif" font-size="11">200</text>
<line x1="76.00" y1="363.20" x2="82.00" y2="363.20" stroke="#111827"/>
<line x1="82.00" y1="363.20" x2="730.00" y2="363.20" stroke="#e5e7eb"/>
<text x="72.00" y="367.20" text-anchor="end" font-family="sans-serif" font-size="11">400</text>
<line x1="76.00" y1="260.80" x2="82.00" y2="260.80" stroke="#111827"/>
<line x1="82.00" y1="260.80" x2="730.00" y2="260.80" stroke="#e5e7eb"/>
<text x="72.00" y="264.80" text-anchor="end" font-family="sans-serif" font-size="11">600</text>
<line x1="76.00" y1="158.40" x2="82.00" y2="158.40" stroke="#111827"/>
<line x1="82.00" y1="158.40" x2="730.00" y2="158.40" stroke="#e5e7eb"/>
<text x="72.00" y="162.40" text-anchor="end" font-family="sans-serif" font-size="11">800</text>
<line x1="76.00" y1="56.00" x2="82.00" y2="56.00" stroke="#111827"/>
<line x1="82.00" y1="56.00" x2="730.00" y2="56.00" stroke="#e5e7eb"/>
<text x="72.00" y="60.00" text-anchor="end" font-family="sans-serif" font-size="11">1000</text>
<polyline points="87.09,46.23 92.02,47.52 101.43,50.09 101.58,52.62 101.58,52.62 118.64,55.16 119.36,57.21 119.36,57.21 119.43,62.52 119.43,62.52 119.43,62.52 150.43,66.16 150.43,66.16 151.33,70.88 151.33,70.88 151.33,70.88 202.83,86.80 202.83,86.80 202.83,86.80 203.52,96.14 203.52,96.14 203.52,96.14 203.52,96.14 278.66,123.38 278.66,123.38 278.66,123.38 278.66,123.38 368.83,182.05 368.83,182.05 368.83,182.05 368.83,182.05 368.83,182.05 454.82,262.64 454.82,262.64 454.82,262.64 454.82,262.64 454.82,262.64 521.08,352.60 521.08,352.60 521.08,352.60 521.08,352.60 521.08,352.60 521.08,352.60 564.22,432.46 564.22,432.46 564.22,432.46 564.22,432.46 564.22,432.46 564.22,432.46" fill="none" stroke="#111827" stroke-width="2.0"/>
<circle cx="87.09" cy="46.23" r="2.8" fill="white" stroke="#111827" stroke-width="1.4"/>
<circle cx="92.02" cy="47.52" r="2.8" fill="white" stroke="#111827" stroke-width="1.4"/>
<circle cx="101.43" cy="50.09" r="2.8" fill="white" stroke="#111827" stroke-width="1.4"/>
<circle cx="101.58" cy="52.62" r="2.8" fill="white" stroke="#111827" stroke-width="1.4"/>
<circle cx="101.58" cy="52.62" r="2.8" fill="white" stroke="#111827" stroke-width="1.4"/>
<circle cx="118.64" cy="55.16" r="2.8" fill="white" stroke="#111827" stroke-width="1.4"/>
<circle cx="119.36" cy="57.21" r="2.8" fill="white" stroke="#111827" stroke-width="1.4"/>
<circle cx="119.36" cy="57.21" r="2.8" fill="white" stroke="#111827" stroke-width="1.4"/>
<circle cx="119.43" cy="62.52" r="2.8" fill="white" stroke="#111827" stroke-width="1.4"/>
<circle cx="119.43" cy="62.52" r="2.8" fill="white" stroke="#111827" stroke-width="1.4"/>
<circle cx="119.43" cy="62.52" r="2.8" fill="white" stroke="#111827" stroke-width="1.4"/>
<circle cx="150.43" cy="66.16" r="2.8" fill="white" stroke="#111827" stroke-width="1.4"/>
<circle cx="150.43" cy="66.16" r="2.8" fill="white" stroke="#111827" stroke-width="1.4"/>
<circle cx="151.33" cy="70.88" r="2.8" fill="white" stroke="#111827" stroke-width="1.4"/>
<circle cx="151.33" cy="70.88" r="2.8" fill="white" stroke="#111827" stroke-width="1.4"/>
<circle cx="151.33" cy="70.88" r="2.8" fill="white" stroke="#111827" stroke-width="1.4"/>
<circle cx="202.83" cy="86.80" r="2.8" fill="white" stroke="#111827" stroke-width="1.4"/>
<circle cx="202.83" cy="86.80" r="2.8" fill="white" stroke="#111827" stroke-width="1.4"/>
<circle cx="202.83" cy="86.80" r="2.8" fill="white" stroke="#111827" stroke-width="1.4"/>
<circle cx="203.52" cy="96.14" r="2.8" fill="white" stroke="#111827" stroke-width="1.4"/>
<circle cx="203.52" cy="96.14" r="2.8" fill="white" stroke="#111827" stroke-width="1.4"/>
<circle cx="203.52" cy="96.14" r="2.8" fill="white" stroke="#111827" stroke-width="1.4"/>
<circle cx="203.52" cy="96.14" r="2.8" fill="white" stroke="#111827" stroke-width="1.4"/>
<circle cx="278.66" cy="123.38" r="2.8" fill="white" stroke="#111827" stroke-width="1.4"/>
<circle cx="278.66" cy="123.38" r="2.8" fill="white" stroke="#111827" stroke-width="1.4"/>
<circle cx="278.66" cy="123.38" r="2.8" fill="white" stroke="#111827" stroke-width="1.4"/>
<circle cx="278.66" cy="123.38" r="2.8" fill="white" stroke="#111827" stroke-width="1.4"/>
<circle cx="368.83" cy="182.05" r="2.8" fill="white" stroke="#111827" stroke-width="1.4"/>
<circle cx="368.83" cy="182.05" r="2.8" fill="white" stroke="#111827" stroke-width="1.4"/>
<circle cx="368.83" cy="182.05" r="2.8" fill="white" stroke="#111827" stroke-width="1.4"/>
<circle cx="368.83" cy="182.05" r="2.8" fill="white" stroke="#111827" stroke-width="1.4"/>
<circle cx="368.83" cy="182.05" r="2.8" fill="white" stroke="#111827" stroke-width="1.4"/>
<circle cx="454.82" cy="262.64" r="2.8" fill="white" stroke="#111827" stroke-width="1.4"/>
<circle cx="454.82" cy="262.64" r="2.8" fill="white" stroke="#111827" stroke-width="1.4"/>
<circle cx="454.82" cy="262.64" r="2.8" fill="white" stroke="#111827" stroke-width="1.4"/>
<circle cx="454.82" cy="262.64" r="2.8" fill="white" stroke="#111827" stroke-width="1.4"/>
<circle cx="454.82" cy="262.64" r="2.8" fill="white" stroke="#111827" stroke-width="1.4"/>
<circle cx="521.08" cy="352.60" r="2.8" fill="white" stroke="#111827" stroke-width="1.4"/>
<circle cx="521.08" cy="352.60" r="2.8" fill="white" stroke="#111827" stroke-width="1.4"/>
<circle cx="521.08" cy="352.60" r="2.8" fill="white" stroke="#111827" stroke-width="1.4"/>
<circle cx="521.08" cy="352.60" r="2.8" fill="white" stroke="#111827" stroke-width="1.4"/>
<circle cx="521.08" cy="352.60" r="2.8" fill="white" stroke="#111827" stroke-width="1.4"/>
<circle cx="521.08" cy="352.60" r="2.8" fill="white" stroke="#111827" stroke-width="1.4"/>
<circle cx="564.22" cy="432.46" r="2.8" fill="white" stroke="#111827" stroke-width="1.4"/>
<circle cx="564.22" cy="432.46" r="2.8" fill="white" stroke="#111827" stroke-width="1.4"/>
<circle cx="564.22" cy="432.46" r="2.8" fill="white" stroke="#111827" stroke-width="1.4"/>
<circle cx="564.22" cy="432.46" r="2.8" fill="white" stroke="#111827" stroke-width="1.4"/>
<circle cx="564.22" cy="432.46" r="2.8" fill="white" stroke="#111827" stroke-width="1.4"/>
<circle cx="564.22" cy="432.46" r="2.8" fill="white" stroke="#111827" stroke-width="1.4"/>
<polyline points="87.09,46.45 92.02,47.97 101.43,50.97 101.58,52.95 118.64,56.87 119.36,57.86 119.43,62.79 150.43,67.41 151.33,71.40 202.83,87.77 203.52,96.56 278.66,124.12 368.83,182.58 454.82,262.96 521.08,352.76 564.22,432.52" fill="none" stroke="#16a34a" stroke-width="2.0" stroke-dasharray="10 2 2 2"/>
<circle cx="87.09" cy="46.45" r="2.8" fill="white" stroke="#16a34a" stroke-width="1.4"/>
<circle cx="92.02" cy="47.97" r="2.8" fill="white" stroke="#16a34a" stroke-width="1.4"/>
<circle cx="101.43" cy="50.97" r="2.8" fill="white" stroke="#16a34a" stroke-width="1.4"/>
<circle cx="101.58" cy="52.95" r="2.8" fill="white" stroke="#16a34a" stroke-width="1.4"/>
<circle cx="118.64" cy="56.87" r="2.8" fill="white" stroke="#16a34a" stroke-width="1.4"/>
<circle cx="119.36" cy="57.86" r="2.8" fill="white" stroke="#16a34a" stroke-width="1.4"/>
<circle cx="119.43" cy="62.79" r="2.8" fill="white" stroke="#16a34a" stroke-width="1.4"/>
<circle cx="150.43" cy="67.41" r="2.8" fill="white" stroke="#16a34a" stroke-width="1.4"/>
<circle cx="151.33" cy="71.40" r="2.8" fill="white" stroke="#16a34a" stroke-width="1.4"/>
<circle cx="202.83" cy="87.77" r="2.8" fill="white" stroke="#16a34a" stroke-width="1.4"/>
<circle cx="203.52" cy="96.56" r="2.8" fill="white" stroke="#16a34a" stroke-width="1.4"/>
<circle cx="278.66" cy="124.12" r="2.8" fill="white" stroke="#16a34a" stroke-width="1.4"/>
<circle cx="368.83" cy="182.58" r="2.8" fill="white" stroke="#16a34a" stroke-width="1.4"/>
<circle cx="454.82" cy="262.96" r="2.8" fill="white" stroke="#16a34a" stroke-width="1.4"/>
<circle cx="521.08" cy="352.76" r="2.8" fill="white" stroke="#16a34a" stroke-width="1.4"/>
<circle cx="564.22" cy="432.52" r="2.8" fill="white" stroke="#16a34a" stroke-width="1.4"/>
<polyline points="87.09,46.46 92.02,47.97 101.43,50.97 101.58,52.96 118.64,56.87 119.36,57.87 119.43,62.80 150.43,67.41 151.33,71.41 202.83,87.78 203.52,96.56 278.66,124.13 368.83,182.58 454.82,262.96 521.08,352.76 564.22,432.52" fill="none" stroke="#2563eb" stroke-width="2.0"/>
<circle cx="87.09" cy="46.46" r="2.8" fill="white" stroke="#2563eb" stroke-width="1.4"/>
<circle cx="92.02" cy="47.97" r="2.8" fill="white" stroke="#2563eb" stroke-width="1.4"/>
<circle cx="101.43" cy="50.97" r="2.8" fill="white" stroke="#2563eb" stroke-width="1.4"/>
<circle cx="101.58" cy="52.96" r="2.8" fill="white" stroke="#2563eb" stroke-width="1.4"/>
<circle cx="118.64" cy="56.87" r="2.8" fill="white" stroke="#2563eb" stroke-width="1.4"/>
<circle cx="119.36" cy="57.87" r="2.8" fill="white" stroke="#2563eb" stroke-width="1.4"/>
<circle cx="119.43" cy="62.80" r="2.8" fill="white" stroke="#2563eb" stroke-width="1.4"/>
<circle cx="150.43" cy="67.41" r="2.8" fill="white" stroke="#2563eb" stroke-width="1.4"/>
<circle cx="151.33" cy="71.41" r="2.8" fill="white" stroke="#2563eb" stroke-width="1.4"/>
<circle cx="202.83" cy="87.78" r="2.8" fill="white" stroke="#2563eb" stroke-width="1.4"/>
<circle cx="203.52" cy="96.56" r="2.8" fill="white" stroke="#2563eb" stroke-width="1.4"/>
<circle cx="278.66" cy="124.13" r="2.8" fill="white" stroke="#2563eb" stroke-width="1.4"/>
<circle cx="368.83" cy="182.58" r="2.8" fill="white" stroke="#2563eb" stroke-width="1.4"/>
<circle cx="454.82" cy="262.96" r="2.8" fill="white" stroke="#2563eb" stroke-width="1.4"/>
<circle cx="521.08" cy="352.76" r="2.8" fill="white" stroke="#2563eb" stroke-width="1.4"/>
<circle cx="564.22" cy="432.52" r="2.8" fill="white" stroke="#2563eb" stroke-width="1.4"/>
<polyline points="86.25,49.69 90.39,51.20 98.33,54.18 98.42,56.48 113.02,60.04 113.52,61.68 132.85,70.52 140.33,71.76 140.90,76.03 155.85,90.76 173.63,91.72 186.17,93.64 186.41,102.39 207.98,127.62 235.46,129.09 254.25,132.01 276.81,186.54 313.79,188.61 338.09,192.69 350.39,267.06 393.68,269.54 413.17,356.39 458.96,358.79" fill="none" stroke="#dc2626" stroke-width="2.0"/>
<circle cx="86.25" cy="49.69" r="2.8" fill="white" stroke="#dc2626" stroke-width="1.4"/>
<circle cx="90.39" cy="51.20" r="2.8" fill="white" stroke="#dc2626" stroke-width="1.4"/>
<circle cx="98.33" cy="54.18" r="2.8" fill="white" stroke="#dc2626" stroke-width="1.4"/>
<circle cx="98.42" cy="56.48" r="2.8" fill="white" stroke="#dc2626" stroke-width="1.4"/>
<circle cx="113.02" cy="60.04" r="2.8" fill="white" stroke="#dc2626" stroke-width="1.4"/>
<circle cx="113.52" cy="61.68" r="2.8" fill="white" stroke="#dc2626" stroke-width="1.4"/>
<circle cx="132.85" cy="70.52" r="2.8" fill="white" stroke="#dc2626" stroke-width="1.4"/>
<circle cx="140.33" cy="71.76" r="2.8" fill="white" stroke="#dc2626" stroke-width="1.4"/>
<circle cx="140.90" cy="76.03" r="2.8" fill="white" stroke="#dc2626" stroke-width="1.4"/>
<circle cx="155.85" cy="90.76" r="2.8" fill="white" stroke="#dc2626" stroke-width="1.4"/>
<circle cx="173.63" cy="91.72" r="2.8" fill="white" stroke="#dc2626" stroke-width="1.4"/>
<circle cx="186.17" cy="93.64" r="2.8" fill="white" stroke="#dc2626" stroke-width="1.4"/>
<circle cx="186.41" cy="102.39" r="2.8" fill="white" stroke="#dc2626" stroke-width="1.4"/>
<circle cx="207.98" cy="127.62" r="2.8" fill="white" stroke="#dc2626" stroke-width="1.4"/>
<circle cx="235.46" cy="129.09" r="2.8" fill="white" stroke="#dc2626" stroke-width="1.4"/>
<circle cx="254.25" cy="132.01" r="2.8" fill="white" stroke="#dc2626" stroke-width="1.4"/>
<circle cx="276.81" cy="186.54" r="2.8" fill="white" stroke="#dc2626" stroke-width="1.4"/>
<circle cx="313.79" cy="188.61" r="2.8" fill="white" stroke="#dc2626" stroke-width="1.4"/>
<circle cx="338.09" cy="192.69" r="2.8" fill="white" stroke="#dc2626" stroke-width="1.4"/>
<circle cx="350.39" cy="267.06" r="2.8" fill="white" stroke="#dc2626" stroke-width="1.4"/>
<circle cx="393.68" cy="269.54" r="2.8" fill="white" stroke="#dc2626" stroke-width="1.4"/>
<circle cx="413.17" cy="356.39" r="2.8" fill="white" stroke="#dc2626" stroke-width="1.4"/>
<circle cx="458.96" cy="358.79" r="2.8" fill="white" stroke="#dc2626" stroke-width="1.4"/>
<polyline points="87.09,145.62 92.02,146.98 101.43,149.67 101.58,150.95 118.64,154.97 119.36,155.12 119.43,158.88 150.43,163.23 151.33,166.01 202.83,179.55 203.52,186.33 278.66,208.86 368.83,256.09 454.82,321.08 521.08,393.72 564.22,458.28" fill="none" stroke="#d97706" stroke-width="2.0"/>
<circle cx="87.09" cy="145.62" r="2.8" fill="white" stroke="#d97706" stroke-width="1.4"/>
<circle cx="92.02" cy="146.98" r="2.8" fill="white" stroke="#d97706" stroke-width="1.4"/>
<circle cx="101.43" cy="149.67" r="2.8" fill="white" stroke="#d97706" stroke-width="1.4"/>
<circle cx="101.58" cy="150.95" r="2.8" fill="white" stroke="#d97706" stroke-width="1.4"/>
<circle cx="118.64" cy="154.97" r="2.8" fill="white" stroke="#d97706" stroke-width="1.4"/>
<circle cx="119.36" cy="155.12" r="2.8" fill="white" stroke="#d97706" stroke-width="1.4"/>
<circle cx="119.43" cy="158.88" r="2.8" fill="white" stroke="#d97706" stroke-width="1.4"/>
<circle cx="150.43" cy="163.23" r="2.8" fill="white" stroke="#d97706" stroke-width="1.4"/>
<circle cx="151.33" cy="166.01" r="2.8" fill="white" stroke="#d97706" stroke-width="1.4"/>
<circle cx="202.83" cy="179.55" r="2.8" fill="white" stroke="#d97706" stroke-width="1.4"/>
<circle cx="203.52" cy="186.33" r="2.8" fill="white" stroke="#d97706" stroke-width="1.4"/>
<circle cx="278.66" cy="208.86" r="2.8" fill="white" stroke="#d97706" stroke-width="1.4"/>
<circle cx="368.83" cy="256.09" r="2.8" fill="white" stroke="#d97706" stroke-width="1.4"/>
<circle cx="454.82" cy="321.08" r="2.8" fill="white" stroke="#d97706" stroke-width="1.4"/>
<circle cx="521.08" cy="393.72" r="2.8" fill="white" stroke="#d97706" stroke-width="1.4"/>
<circle cx="564.22" cy="458.28" r="2.8" fill="white" stroke="#d97706" stroke-width="1.4"/>
<polyline points="87.08,46.77 91.99,48.60 101.31,52.21 101.45,54.15 118.20,59.30 118.90,60.21 118.97,65.06 148.91,71.91 149.77,75.77 198.16,95.87 198.79,104.30 266.56,137.66 343.80,202.47 413.61,287.11 465.02,376.02 497.44,457.96" fill="none" stroke="#7c3aed" stroke-width="2.0"/>
<circle cx="87.08" cy="46.77" r="2.8" fill="white" stroke="#7c3aed" stroke-width="1.4"/>
<circle cx="91.99" cy="48.60" r="2.8" fill="white" stroke="#7c3aed" stroke-width="1.4"/>
<circle cx="101.31" cy="52.21" r="2.8" fill="white" stroke="#7c3aed" stroke-width="1.4"/>
<circle cx="101.45" cy="54.15" r="2.8" fill="white" stroke="#7c3aed" stroke-width="1.4"/>
<circle cx="118.20" cy="59.30" r="2.8" fill="white" stroke="#7c3aed" stroke-width="1.4"/>
<circle cx="118.90" cy="60.21" r="2.8" fill="white" stroke="#7c3aed" stroke-width="1.4"/>
<circle cx="118.97" cy="65.06" r="2.8" fill="white" stroke="#7c3aed" stroke-width="1.4"/>
<circle cx="148.91" cy="71.91" r="2.8" fill="white" stroke="#7c3aed" stroke-width="1.4"/>
<circle cx="149.77" cy="75.77" r="2.8" fill="white" stroke="#7c3aed" stroke-width="1.4"/>
<circle cx="198.16" cy="95.87" r="2.8" fill="white" stroke="#7c3aed" stroke-width="1.4"/>
<circle cx="198.79" cy="104.30" r="2.8" fill="white" stroke="#7c3aed" stroke-width="1.4"/>
<circle cx="266.56" cy="137.66" r="2.8" fill="white" stroke="#7c3aed" stroke-width="1.4"/>
<circle cx="343.80" cy="202.47" r="2.8" fill="white" stroke="#7c3aed" stroke-width="1.4"/>
<circle cx="413.61" cy="287.11" r="2.8" fill="white" stroke="#7c3aed" stroke-width="1.4"/>
<circle cx="465.02" cy="376.02" r="2.8" fill="white" stroke="#7c3aed" stroke-width="1.4"/>
<circle cx="497.44" cy="457.96" r="2.8" fill="white" stroke="#7c3aed" stroke-width="1.4"/>
<polyline points="86.60,96.75 117.06,96.81 203.43,96.99 531.13,97.33 643.97,280.67 725.26,421.72" fill="none" stroke="#0891b2" stroke-width="2.0"/>
<circle cx="86.60" cy="96.75" r="2.8" fill="white" stroke="#0891b2" stroke-width="1.4"/>
<circle cx="117.06" cy="96.81" r="2.8" fill="white" stroke="#0891b2" stroke-width="1.4"/>
<circle cx="203.43" cy="96.99" r="2.8" fill="white" stroke="#0891b2" stroke-width="1.4"/>
<circle cx="531.13" cy="97.33" r="2.8" fill="white" stroke="#0891b2" stroke-width="1.4"/>
<circle cx="643.97" cy="280.67" r="2.8" fill="white" stroke="#0891b2" stroke-width="1.4"/>
<circle cx="725.26" cy="421.72" r="2.8" fill="white" stroke="#0891b2" stroke-width="1.4"/>
<polyline points="87.08,46.48 91.98,48.03 101.29,51.10 101.46,53.00 118.13,57.12 118.93,57.96 119.05,62.83 149.01,67.60 150.05,71.49 198.99,87.93 199.91,96.63 269.36,124.25 350.14,182.67 424.42,263.02 479.90,352.78 515.22,432.53" fill="none" stroke="#be123c" stroke-width="2.0"/>
<circle cx="87.08" cy="46.48" r="2.8" fill="white" stroke="#be123c" stroke-width="1.4"/>
<circle cx="91.98" cy="48.03" r="2.8" fill="white" stroke="#be123c" stroke-width="1.4"/>
<circle cx="101.29" cy="51.10" r="2.8" fill="white" stroke="#be123c" stroke-width="1.4"/>
<circle cx="101.46" cy="53.00" r="2.8" fill="white" stroke="#be123c" stroke-width="1.4"/>
<circle cx="118.13" cy="57.12" r="2.8" fill="white" stroke="#be123c" stroke-width="1.4"/>
<circle cx="118.93" cy="57.96" r="2.8" fill="white" stroke="#be123c" stroke-width="1.4"/>
<circle cx="119.05" cy="62.83" r="2.8" fill="white" stroke="#be123c" stroke-width="1.4"/>
<circle cx="149.01" cy="67.60" r="2.8" fill="white" stroke="#be123c" stroke-width="1.4"/>
<circle cx="150.05" cy="71.49" r="2.8" fill="white" stroke="#be123c" stroke-width="1.4"/>
<circle cx="198.99" cy="87.93" r="2.8" fill="white" stroke="#be123c" stroke-width="1.4"/>
<circle cx="199.91" cy="96.63" r="2.8" fill="white" stroke="#be123c" stroke-width="1.4"/>
<circle cx="269.36" cy="124.25" r="2.8" fill="white" stroke="#be123c" stroke-width="1.4"/>
<circle cx="350.14" cy="182.67" r="2.8" fill="white" stroke="#be123c" stroke-width="1.4"/>
<circle cx="424.42" cy="263.02" r="2.8" fill="white" stroke="#be123c" stroke-width="1.4"/>
<circle cx="479.90" cy="352.78" r="2.8" fill="white" stroke="#be123c" stroke-width="1.4"/>
<circle cx="515.22" cy="432.53" r="2.8" fill="white" stroke="#be123c" stroke-width="1.4"/>
<polyline points="86.63,93.85 91.13,95.21 99.75,97.90 99.86,99.75 115.61,103.19 116.20,104.19 116.22,108.70 145.00,112.81 145.72,116.51 193.95,131.35 194.38,139.38 265.81,164.41 352.92,217.57 437.66,290.67 504.09,372.31 547.85,444.83" fill="none" stroke="#4f46e5" stroke-width="2.0"/>
<circle cx="86.63" cy="93.85" r="2.8" fill="white" stroke="#4f46e5" stroke-width="1.4"/>
<circle cx="91.13" cy="95.21" r="2.8" fill="white" stroke="#4f46e5" stroke-width="1.4"/>
<circle cx="99.75" cy="97.90" r="2.8" fill="white" stroke="#4f46e5" stroke-width="1.4"/>
<circle cx="99.86" cy="99.75" r="2.8" fill="white" stroke="#4f46e5" stroke-width="1.4"/>
<circle cx="115.61" cy="103.19" r="2.8" fill="white" stroke="#4f46e5" stroke-width="1.4"/>
<circle cx="116.20" cy="104.19" r="2.8" fill="white" stroke="#4f46e5" stroke-width="1.4"/>
<circle cx="116.22" cy="108.70" r="2.8" fill="white" stroke="#4f46e5" stroke-width="1.4"/>
<circle cx="145.00" cy="112.81" r="2.8" fill="white" stroke="#4f46e5" stroke-width="1.4"/>
<circle cx="145.72" cy="116.51" r="2.8" fill="white" stroke="#4f46e5" stroke-width="1.4"/>
<circle cx="193.95" cy="131.35" r="2.8" fill="white" stroke="#4f46e5" stroke-width="1.4"/>
<circle cx="194.38" cy="139.38" r="2.8" fill="white" stroke="#4f46e5" stroke-width="1.4"/>
<circle cx="265.81" cy="164.41" r="2.8" fill="white" stroke="#4f46e5" stroke-width="1.4"/>
<circle cx="352.92" cy="217.57" r="2.8" fill="white" stroke="#4f46e5" stroke-width="1.4"/>
<circle cx="437.66" cy="290.67" r="2.8" fill="white" stroke="#4f46e5" stroke-width="1.4"/>
<circle cx="504.09" cy="372.31" r="2.8" fill="white" stroke="#4f46e5" stroke-width="1.4"/>
<circle cx="547.85" cy="444.83" r="2.8" fill="white" stroke="#4f46e5" stroke-width="1.4"/>
<polyline points="86.82,47.38 91.02,49.82 97.98,54.61 98.08,54.77 108.40,61.41 108.43,64.54 120.87,74.20 121.16,74.77 133.58,94.03 133.71,99.59 143.74,302.70 150.50,434.52 154.50,501.08 156.69,534.50 157.84,551.24" fill="none" stroke="#9333ea" stroke-width="2.0"/>
<circle cx="86.82" cy="47.38" r="2.8" fill="white" stroke="#9333ea" stroke-width="1.4"/>
<circle cx="91.02" cy="49.82" r="2.8" fill="white" stroke="#9333ea" stroke-width="1.4"/>
<circle cx="97.98" cy="54.61" r="2.8" fill="white" stroke="#9333ea" stroke-width="1.4"/>
<circle cx="98.08" cy="54.77" r="2.8" fill="white" stroke="#9333ea" stroke-width="1.4"/>
<circle cx="108.40" cy="61.41" r="2.8" fill="white" stroke="#9333ea" stroke-width="1.4"/>
<circle cx="108.43" cy="64.54" r="2.8" fill="white" stroke="#9333ea" stroke-width="1.4"/>
<circle cx="120.87" cy="74.20" r="2.8" fill="white" stroke="#9333ea" stroke-width="1.4"/>
<circle cx="121.16" cy="74.77" r="2.8" fill="white" stroke="#9333ea" stroke-width="1.4"/>
<circle cx="133.58" cy="94.03" r="2.8" fill="white" stroke="#9333ea" stroke-width="1.4"/>
<circle cx="133.71" cy="99.59" r="2.8" fill="white" stroke="#9333ea" stroke-width="1.4"/>
<circle cx="143.74" cy="302.70" r="2.8" fill="white" stroke="#9333ea" stroke-width="1.4"/>
<circle cx="150.50" cy="434.52" r="2.8" fill="white" stroke="#9333ea" stroke-width="1.4"/>
<circle cx="154.50" cy="501.08" r="2.8" fill="white" stroke="#9333ea" stroke-width="1.4"/>
<circle cx="156.69" cy="534.50" r="2.8" fill="white" stroke="#9333ea" stroke-width="1.4"/>
<circle cx="157.84" cy="551.24" r="2.8" fill="white" stroke="#9333ea" stroke-width="1.4"/>
<polyline points="87.25,30.32 92.33,31.88 102.03,34.98 102.18,37.02 119.77,41.06 120.51,42.09 120.58,47.17 152.53,51.93 153.45,56.05 206.50,72.92 207.20,81.98 284.52,110.40 377.18,170.66 465.43,253.53 533.34,346.10 577.51,428.33" fill="none" stroke="#15803d" stroke-width="2.0" stroke-dasharray="4 2"/>
<circle cx="87.25" cy="30.32" r="2.8" fill="white" stroke="#15803d" stroke-width="1.4"/>
<circle cx="92.33" cy="31.88" r="2.8" fill="white" stroke="#15803d" stroke-width="1.4"/>
<circle cx="102.03" cy="34.98" r="2.8" fill="white" stroke="#15803d" stroke-width="1.4"/>
<circle cx="102.18" cy="37.02" r="2.8" fill="white" stroke="#15803d" stroke-width="1.4"/>
<circle cx="119.77" cy="41.06" r="2.8" fill="white" stroke="#15803d" stroke-width="1.4"/>
<circle cx="120.51" cy="42.09" r="2.8" fill="white" stroke="#15803d" stroke-width="1.4"/>
<circle cx="120.58" cy="47.17" r="2.8" fill="white" stroke="#15803d" stroke-width="1.4"/>
<circle cx="152.53" cy="51.93" r="2.8" fill="white" stroke="#15803d" stroke-width="1.4"/>
<circle cx="153.45" cy="56.05" r="2.8" fill="white" stroke="#15803d" stroke-width="1.4"/>
<circle cx="206.50" cy="72.92" r="2.8" fill="white" stroke="#15803d" stroke-width="1.4"/>
<circle cx="207.20" cy="81.98" r="2.8" fill="white" stroke="#15803d" stroke-width="1.4"/>
<circle cx="284.52" cy="110.40" r="2.8" fill="white" stroke="#15803d" stroke-width="1.4"/>
<circle cx="377.18" cy="170.66" r="2.8" fill="white" stroke="#15803d" stroke-width="1.4"/>
<circle cx="465.43" cy="253.53" r="2.8" fill="white" stroke="#15803d" stroke-width="1.4"/>
<circle cx="533.34" cy="346.10" r="2.8" fill="white" stroke="#15803d" stroke-width="1.4"/>
<circle cx="577.51" cy="428.33" r="2.8" fill="white" stroke="#15803d" stroke-width="1.4"/>
<line x1="758" y1="64" x2="784" y2="64" stroke="#111827" stroke-width="2.2"/>
<text x="792" y="68" font-family="sans-serif" font-size="11">analytical</text>
<line x1="758" y1="86" x2="784" y2="86" stroke="#16a34a" stroke-width="2.2"/>
<text x="792" y="90" font-family="sans-serif" font-size="11">afd_global_des</text>
<line x1="758" y1="108" x2="784" y2="108" stroke="#2563eb" stroke-width="2.2"/>
<text x="792" y="112" font-family="sans-serif" font-size="11">context_growth</text>
<line x1="758" y1="130" x2="784" y2="130" stroke="#dc2626" stroke-width="2.2"/>
<text x="792" y="134" font-family="sans-serif" font-size="11">prefill_interference</text>
<line x1="758" y1="152" x2="784" y2="152" stroke="#d97706" stroke-width="2.2"/>
<text x="792" y="156" font-family="sans-serif" font-size="11">sparse_arrivals</text>
<line x1="758" y1="174" x2="784" y2="174" stroke="#7c3aed" stroke-width="2.2"/>
<text x="792" y="178" font-family="sans-serif" font-size="11">operator_overheads</text>
<line x1="758" y1="196" x2="784" y2="196" stroke="#0891b2" stroke-width="2.2"/>
<text x="792" y="200" font-family="sans-serif" font-size="11">roofline_backend</text>
<line x1="758" y1="218" x2="784" y2="218" stroke="#be123c" stroke-width="2.2"/>
<text x="792" y="222" font-family="sans-serif" font-size="11">collective_contention</text>
<line x1="758" y1="240" x2="784" y2="240" stroke="#4f46e5" stroke-width="2.2"/>
<text x="792" y="244" font-family="sans-serif" font-size="11">replica_imbalance</text>
<line x1="758" y1="262" x2="784" y2="262" stroke="#9333ea" stroke-width="2.2"/>
<text x="792" y="266" font-family="sans-serif" font-size="11">kv_transfer</text>
<line x1="758" y1="284" x2="784" y2="284" stroke="#15803d" stroke-width="2.2"/>
<text x="792" y="288" font-family="sans-serif" font-size="11">runtime_optimizations</text>
<text x="406" y="618" text-anchor="middle" font-family="sans-serif" font-size="13">interactivity (tok/s/user)</text>
<text x="18" y="312" text-anchor="middle" transform="rotate(-90 18 312)" font-family="sans-serif" font-size="13">output tok/s/GPU</text>
</svg>
