<svg xmlns="http://www.w3.org/2000/svg" width="1180" height="560" viewBox="0 0 1180 560">
<rect width="100%" height="100%" fill="white"/>
<text x="590" y="28" text-anchor="middle" font-family="sans-serif" font-size="18">AFD Section 5: analytical vs DES replay</text>
<line x1="72.00" y1="496.00" x2="573.00" y2="496.00" stroke="#111827"/>
<line x1="72.00" y1="60.00" x2="72.00" y2="496.00" stroke="#111827"/>
<text x="322.50" y="44.00" text-anchor="middle" font-family="sans-serif" font-size="14" fill="#111827">Analytical Pareto</text>
<line x1="645.00" y1="496.00" x2="1146.00" y2="496.00" stroke="#111827"/>
<line x1="645.00" y1="60.00" x2="645.00" y2="496.00" stroke="#111827"/>
<text x="895.50" y="44.00" text-anchor="middle" font-family="sans-serif" font-size="14" fill="#111827">DES replay of analytical configs</text>
<polyline points="92.01,60.00 201.54,120.54 313.05,246.71 313.05,246.71 410.73,352.51 410.73,352.51 410.73,352.51 479.44,418.06 479.44,418.06 479.44,418.06 479.44,418.06 523.16,454.99 523.16,454.99 523.16,454.99 523.16,454.99 523.16,454.99 523.16,454.99 548.83,474.86 548.83,474.86 548.83,474.86 548.83,474.86 548.83,474.86 548.83,474.86 563.15,485.24 563.15,485.24 563.15,485.24 563.15,485.24 563.15,485.24 563.15,485.24 568.74,490.62 568.74,490.62 568.74,490.62 568.74,490.62 568.74,490.62 568.74,490.62 571.57,493.31 571.57,493.31 571.57,493.31 571.57,493.31 571.57,493.31 571.57,493.31 573.00,494.66 573.00,494.66 573.00,494.66 573.00,494.66 573.00,494.66 573.00,494.66" fill="none" stroke="#2563eb" stroke-width="2.2"/>
<circle cx="92.01" cy="60.00" r="3.0" fill="#2563eb" fill-opacity="0.95"/>
<circle cx="201.54" cy="120.54" r="3.0" fill="#2563eb" fill-opacity="0.95"/>
<circle cx="313.05" cy="246.71" r="3.0" fill="#2563eb" fill-opacity="0.95"/>
<circle cx="313.05" cy="246.71" r="3.0" fill="#2563eb" fill-opacity="0.95"/>
<circle cx="410.73" cy="352.51" r="3.0" fill="#2563eb" fill-opacity="0.95"/>
<circle cx="410.73" cy="352.51" r="3.0" fill="#2563eb" fill-opacity="0.95"/>
<circle cx="410.73" cy="352.51" r="3.0" fill="#2563eb" fill-opacity="0.95"/>
<circle cx="479.44" cy="418.06" r="3.0" fill="#2563eb" fill-opacity="0.95"/>
<circle cx="479.44" cy="418.06" r="3.0" fill="#2563eb" fill-opacity="0.95"/>
<circle cx="479.44" cy="418.06" r="3.0" fill="#2563eb" fill-opacity="0.95"/>
<circle cx="479.44" cy="418.06" r="3.0" fill="#2563eb" fill-opacity="0.95"/>
<circle cx="523.16" cy="454.99" r="3.0" fill="#2563eb" fill-opacity="0.95"/>
<circle cx="523.16" cy="454.99" r="3.0" fill="#2563eb" fill-opacity="0.95"/>
<circle cx="523.16" cy="454.99" r="3.0" fill="#2563eb" fill-opacity="0.95"/>
<circle cx="523.16" cy="454.99" r="3.0" fill="#2563eb" fill-opacity="0.95"/>
<circle cx="523.16" cy="454.99" r="3.0" fill="#2563eb" fill-opacity="0.95"/>
<circle cx="523.16" cy="454.99" r="3.0" fill="#2563eb" fill-opacity="0.95"/>
<circle cx="548.83" cy="474.86" r="3.0" fill="#2563eb" fill-opacity="0.95"/>
<circle cx="548.83" cy="474.86" r="3.0" fill="#2563eb" fill-opacity="0.95"/>
<circle cx="548.83" cy="474.86" r="3.0" fill="#2563eb" fill-opacity="0.95"/>
<circle cx="548.83" cy="474.86" r="3.0" fill="#2563eb" fill-opacity="0.95"/>
<circle cx="548.83" cy="474.86" r="3.0" fill="#2563eb" fill-opacity="0.95"/>
<circle cx="548.83" cy="474.86" r="3.0" fill="#2563eb" fill-opacity="0.95"/>
<circle cx="563.15" cy="485.24" r="3.0" fill="#2563eb" fill-opacity="0.95"/>
<circle cx="563.15" cy="485.24" r="3.0" fill="#2563eb" fill-opacity="0.95"/>
<circle cx="563.15" cy="485.24" r="3.0" fill="#2563eb" fill-opacity="0.95"/>
<circle cx="563.15" cy="485.24" r="3.0" fill="#2563eb" fill-opacity="0.95"/>
<circle cx="563.15" cy="485.24" r="3.0" fill="#2563eb" fill-opacity="0.95"/>
<circle cx="563.15" cy="485.24" r="3.0" fill="#2563eb" fill-opacity="0.95"/>
<circle cx="568.74" cy="490.62" r="3.0" fill="#2563eb" fill-opacity="0.95"/>
<circle cx="568.74" cy="490.62" r="3.0" fill="#2563eb" fill-opacity="0.95"/>
<circle cx="568.74" cy="490.62" r="3.0" fill="#2563eb" fill-opacity="0.95"/>
<circle cx="568.74" cy="490.62" r="3.0" fill="#2563eb" fill-opacity="0.95"/>
<circle cx="568.74" cy="490.62" r="3.0" fill="#2563eb" fill-opacity="0.95"/>
<circle cx="568.74" cy="490.62" r="3.0" fill="#2563eb" fill-opacity="0.95"/>
<circle cx="571.57" cy="493.31" r="3.0" fill="#2563eb" fill-opacity="0.95"/>
<circle cx="571.57" cy="493.31" r="3.0" fill="#2563eb" fill-opacity="0.95"/>
<circle cx="571.57" cy="493.31" r="3.0" fill="#2563eb" fill-opacity="0.95"/>
<circle cx="571.57" cy="493.31" r="3.0" fill="#2563eb" fill-opacity="0.95"/>
<circle cx="571.57" cy="493.31" r="3.0" fill="#2563eb" fill-opacity="0.95"/>
<circle cx="571.57" cy="493.31" r="3.0" fill="#2563eb" fill-opacity="0.95"/>
<circle cx="573.00" cy="494.66" r="3.0" fill="#2563eb" fill-opacity="0.95"/>
<circle cx="573.00" cy="494.66" r="3.0" fill="#2563eb" fill-opacity="0.95"/>
<circle cx="573.00" cy="494.66" r="3.0" fill="#2563eb" fill-opacity="0.95"/>
<circle cx="573.00" cy="494.66" r="3.0" fill="#2563eb" fill-opacity="0.95"/>
<circle cx="573.00" cy="494.66" r="3.0" fill="#2563eb" fill-opacity="0.95"/>
<circle cx="573.00" cy="494.66" r="3.0" fill="#2563eb" fill-opacity="0.95"/>
<circle cx="665.01" cy="202.32" r="2.5" fill="#2563eb" fill-opacity="0.25"/>
<circle cx="774.54" cy="211.08" r="2.5" fill="#2563eb" fill-opacity="0.25"/>
<circle cx="886.05" cy="305.67" r="2.5" fill="#2563eb" fill-opacity="0.25"/>
<circle cx="886.05" cy="280.15" r="2.5" fill="#2563eb" fill-opacity="0.25"/>
<circle cx="983.72" cy="383.53" r="2.5" fill="#2563eb" fill-opacity="0.25"/>
<circle cx="983.72" cy="369.90" r="2.5" fill="#2563eb" fill-opacity="0.25"/>
<circle cx="983.72" cy="361.77" r="2.5" fill="#2563eb" fill-opacity="0.25"/>
<circle cx="1052.44" cy="433.93" r="2.5" fill="#2563eb" fill-opacity="0.25"/>
<circle cx="1052.44" cy="426.90" r="2.5" fill="#2563eb" fill-opacity="0.25"/>
<circle cx="1052.44" cy="422.74" r="2.5" fill="#2563eb" fill-opacity="0.25"/>
<circle cx="1052.44" cy="420.47" r="2.5" fill="#2563eb" fill-opacity="0.25"/>
<circle cx="1096.16" cy="468.52" r="2.5" fill="#2563eb" fill-opacity="0.25"/>
<circle cx="1096.16" cy="463.09" r="2.5" fill="#2563eb" fill-opacity="0.25"/>
<circle cx="1096.16" cy="459.48" r="2.5" fill="#2563eb" fill-opacity="0.25"/>
<circle cx="1096.16" cy="457.37" r="2.5" fill="#2563eb" fill-opacity="0.25"/>
<circle cx="1096.16" cy="456.21" r="2.5" fill="#2563eb" fill-opacity="0.25"/>
<circle cx="1096.16" cy="455.61" r="2.5" fill="#2563eb" fill-opacity="0.25"/>
<circle cx="1121.84" cy="478.98" r="2.5" fill="#2563eb" fill-opacity="0.25"/>
<circle cx="1121.84" cy="477.14" r="2.5" fill="#2563eb" fill-opacity="0.25"/>
<circle cx="1121.84" cy="476.07" r="2.5" fill="#2563eb" fill-opacity="0.25"/>
<circle cx="1121.84" cy="475.48" r="2.5" fill="#2563eb" fill-opacity="0.25"/>
<circle cx="1121.84" cy="475.18" r="2.5" fill="#2563eb" fill-opacity="0.25"/>
<circle cx="1121.84" cy="475.02" r="2.5" fill="#2563eb" fill-opacity="0.25"/>
<circle cx="1136.13" cy="486.40" r="2.5" fill="#2563eb" fill-opacity="0.25"/>
<circle cx="1136.13" cy="485.85" r="2.5" fill="#2563eb" fill-opacity="0.25"/>
<circle cx="1136.13" cy="485.56" r="2.5" fill="#2563eb" fill-opacity="0.25"/>
<circle cx="1136.13" cy="485.40" r="2.5" fill="#2563eb" fill-opacity="0.25"/>
<circle cx="1136.13" cy="485.32" r="2.5" fill="#2563eb" fill-opacity="0.25"/>
<circle cx="1136.13" cy="485.28" r="2.5" fill="#2563eb" fill-opacity="0.25"/>
<circle cx="1141.75" cy="491.19" r="2.5" fill="#2563eb" fill-opacity="0.25"/>
<circle cx="1141.75" cy="490.92" r="2.5" fill="#2563eb" fill-opacity="0.25"/>
<circle cx="1141.75" cy="490.78" r="2.5" fill="#2563eb" fill-opacity="0.25"/>
<circle cx="1141.75" cy="490.70" r="2.5" fill="#2563eb" fill-opacity="0.25"/>
<circle cx="1141.75" cy="490.66" r="2.5" fill="#2563eb" fill-opacity="0.25"/>
<circle cx="1141.75" cy="490.64" r="2.5" fill="#2563eb" fill-opacity="0.25"/>
<circle cx="1144.59" cy="493.59" r="2.5" fill="#2563eb" fill-opacity="0.25"/>
<circle cx="1144.59" cy="493.46" r="2.5" fill="#2563eb" fill-opacity="0.25"/>
<circle cx="1144.59" cy="493.39" r="2.5" fill="#2563eb" fill-opacity="0.25"/>
<circle cx="1144.59" cy="493.35" r="2.5" fill="#2563eb" fill-opacity="0.25"/>
<circle cx="1144.59" cy="493.33" r="2.5" fill="#2563eb" fill-opacity="0.25"/>
<circle cx="1144.59" cy="493.32" r="2.5" fill="#2563eb" fill-opacity="0.25"/>
<circle cx="1146.00" cy="494.80" r="2.5" fill="#2563eb" fill-opacity="0.25"/>
<circle cx="1146.00" cy="494.73" r="2.5" fill="#2563eb" fill-opacity="0.25"/>
<circle cx="1146.00" cy="494.69" r="2.5" fill="#2563eb" fill-opacity="0.25"/>
<circle cx="1146.00" cy="494.67" r="2.5" fill="#2563eb" fill-opacity="0.25"/>
<circle cx="1146.00" cy="494.67" r="2.5" fill="#2563eb" fill-opacity="0.25"/>
<circle cx="1146.00" cy="494.66" r="2.5" fill="#2563eb" fill-opacity="0.25"/>
<polyline points="665.01,202.32 774.54,211.08 886.05,280.15 983.72,361.77 1052.44,420.47 1096.16,455.61 1121.84,475.02 1136.13,485.28 1141.75,490.64 1144.59,493.32 1146.00,494.66" fill="none" stroke="#2563eb" stroke-width="2.2"/>
<circle cx="665.01" cy="202.32" r="3.2" fill="#2563eb" fill-opacity="0.95"/>
<circle cx="774.54" cy="211.08" r="3.2" fill="#2563eb" fill-opacity="0.95"/>
<circle cx="886.05" cy="280.15" r="3.2" fill="#2563eb" fill-opacity="0.95"/>
<circle cx="983.72" cy="361.77" r="3.2" fill="#2563eb" fill-opacity="0.95"/>
<circle cx="1052.44" cy="420.47" r="3.2" fill="#2563eb" fill-opacity="0.95"/>
<circle cx="1096.16" cy="455.61" r="3.2" fill="#2563eb" fill-opacity="0.95"/>
<circle cx="1121.84" cy="475.02" r="3.2" fill="#2563eb" fill-opacity="0.95"/>
<circle cx="1136.13" cy="485.28" r="3.2" fill="#2563eb" fill-opacity="0.95"/>
<circle cx="1141.75" cy="490.64" r="3.2" fill="#2563eb" fill-opacity="0.95"/>
<circle cx="1144.59" cy="493.32" r="3.2" fill="#2563eb" fill-opacity="0.95"/>
<circle cx="1146.00" cy="494.66" r="3.2" fill="#2563eb" fill-opacity="0.95"/>
<polyline points="86.63,71.07 189.32,120.54 291.16,246.71 291.16,246.71 378.22,352.51 378.22,352.51 378.22,352.51 438.29,418.06 438.29,418.06 438.29,418.06 438.29,418.06 476.03,454.99 476.03,454.99 476.03,454.99 476.03,454.99 476.03,454.99 498.01,474.86 498.01,474.86 498.01,474.86 498.01,474.86 498.01,474.86 498.01,474.86 510.22,485.24 510.22,485.24 510.22,485.24 510.22,485.24 510.22,485.24 510.22,485.24 514.97,490.62 514.97,490.62 514.97,490.62 514.97,490.62 514.97,490.62 514.97,490.62 517.38,493.31 517.38,493.31 517.38,493.31 517.38,493.31 517.38,493.31 517.38,493.31 518.59,494.66 518.59,494.66 518.59,494.66 518.59,494.66 518.59,494.66 518.59,494.66" fill="none" stroke="#0f766e" stroke-width="2.2"/>
<circle cx="86.63" cy="71.07" r="3.0" fill="#0f766e" fill-opacity="0.95"/>
<circle cx="189.32" cy="120.54" r="3.0" fill="#0f766e" fill-opacity="0.95"/>
<circle cx="291.16" cy="246.71" r="3.0" fill="#0f766e" fill-opacity="0.95"/>
<circle cx="291.16" cy="246.71" r="3.0" fill="#0f766e" fill-opacity="0.95"/>
<circle cx="378.22" cy="352.51" r="3.0" fill="#0f766e" fill-opacity="0.95"/>
<circle cx="378.22" cy="352.51" r="3.0" fill="#0f766e" fill-opacity="0.95"/>
<circle cx="378.22" cy="352.51" r="3.0" fill="#0f766e" fill-opacity="0.95"/>
<circle cx="438.29" cy="418.06" r="3.0" fill="#0f766e" fill-opacity="0.95"/>
<circle cx="438.29" cy="418.06" r="3.0" fill="#0f766e" fill-opacity="0.95"/>
<circle cx="438.29" cy="418.06" r="3.0" fill="#0f766e" fill-opacity="0.95"/>
<circle cx="438.29" cy="418.06" r="3.0" fill="#0f766e" fill-opacity="0.95"/>
<circle cx="476.03" cy="454.99" r="3.0" fill="#0f766e" fill-opacity="0.95"/>
<circle cx="476.03" cy="454.99" r="3.0" fill="#0f766e" fill-opacity="0.95"/>
<circle cx="476.03" cy="454.99" r="3.0" fill="#0f766e" fill-opacity="0.95"/>
<circle cx="476.03" cy="454.99" r="3.0" fill="#0f766e" fill-opacity="0.95"/>
<circle cx="476.03" cy="454.99" r="3.0" fill="#0f766e" fill-opacity="0.95"/>
<circle cx="498.01" cy="474.86" r="3.0" fill="#0f766e" fill-opacity="0.95"/>
<circle cx="498.01" cy="474.86" r="3.0" fill="#0f766e" fill-opacity="0.95"/>
<circle cx="498.01" cy="474.86" r="3.0" fill="#0f766e" fill-opacity="0.95"/>
<circle cx="498.01" cy="474.86" r="3.0" fill="#0f766e" fill-opacity="0.95"/>
<circle cx="498.01" cy="474.86" r="3.0" fill="#0f766e" fill-opacity="0.95"/>
<circle cx="498.01" cy="474.86" r="3.0" fill="#0f766e" fill-opacity="0.95"/>
<circle cx="510.22" cy="485.24" r="3.0" fill="#0f766e" fill-opacity="0.95"/>
<circle cx="510.22" cy="485.24" r="3.0" fill="#0f766e" fill-opacity="0.95"/>
<circle cx="510.22" cy="485.24" r="3.0" fill="#0f766e" fill-opacity="0.95"/>
<circle cx="510.22" cy="485.24" r="3.0" fill="#0f766e" fill-opacity="0.95"/>
<circle cx="510.22" cy="485.24" r="3.0" fill="#0f766e" fill-opacity="0.95"/>
<circle cx="510.22" cy="485.24" r="3.0" fill="#0f766e" fill-opacity="0.95"/>
<circle cx="514.97" cy="490.62" r="3.0" fill="#0f766e" fill-opacity="0.95"/>
<circle cx="514.97" cy="490.62" r="3.0" fill="#0f766e" fill-opacity="0.95"/>
<circle cx="514.97" cy="490.62" r="3.0" fill="#0f766e" fill-opacity="0.95"/>
<circle cx="514.97" cy="490.62" r="3.0" fill="#0f766e" fill-opacity="0.95"/>
<circle cx="514.97" cy="490.62" r="3.0" fill="#0f766e" fill-opacity="0.95"/>
<circle cx="514.97" cy="490.62" r="3.0" fill="#0f766e" fill-opacity="0.95"/>
<circle cx="517.38" cy="493.31" r="3.0" fill="#0f766e" fill-opacity="0.95"/>
<circle cx="517.38" cy="493.31" r="3.0" fill="#0f766e" fill-opacity="0.95"/>
<circle cx="517.38" cy="493.31" r="3.0" fill="#0f766e" fill-opacity="0.95"/>
<circle cx="517.38" cy="493.31" r="3.0" fill="#0f766e" fill-opacity="0.95"/>
<circle cx="517.38" cy="493.31" r="3.0" fill="#0f766e" fill-opacity="0.95"/>
<circle cx="517.38" cy="493.31" r="3.0" fill="#0f766e" fill-opacity="0.95"/>
<circle cx="518.59" cy="494.66" r="3.0" fill="#0f766e" fill-opacity="0.95"/>
<circle cx="518.59" cy="494.66" r="3.0" fill="#0f766e" fill-opacity="0.95"/>
<circle cx="518.59" cy="494.66" r="3.0" fill="#0f766e" fill-opacity="0.95"/>
<circle cx="518.59" cy="494.66" r="3.0" fill="#0f766e" fill-opacity="0.95"/>
<circle cx="518.59" cy="494.66" r="3.0" fill="#0f766e" fill-opacity="0.95"/>
<circle cx="518.59" cy="494.66" r="3.0" fill="#0f766e" fill-opacity="0.95"/>
<circle cx="659.63" cy="207.39" r="2.5" fill="#0f766e" fill-opacity="0.25"/>
<circle cx="762.32" cy="215.85" r="2.5" fill="#0f766e" fill-opacity="0.25"/>
<circle cx="864.16" cy="309.91" r="2.5" fill="#0f766e" fill-opacity="0.25"/>
<circle cx="864.16" cy="282.90" r="2.5" fill="#0f766e" fill-opacity="0.25"/>
<circle cx="951.21" cy="386.48" r="2.5" fill="#0f766e" fill-opacity="0.25"/>
<circle cx="951.21" cy="371.77" r="2.5" fill="#0f766e" fill-opacity="0.25"/>
<circle cx="951.21" cy="362.83" r="2.5" fill="#0f766e" fill-opacity="0.25"/>
<circle cx="1011.29" cy="435.72" r="2.5" fill="#0f766e" fill-opacity="0.25"/>
<circle cx="1011.29" cy="428.02" r="2.5" fill="#0f766e" fill-opacity="0.25"/>
<circle cx="1011.29" cy="423.38" r="2.5" fill="#0f766e" fill-opacity="0.25"/>
<circle cx="1011.29" cy="420.81" r="2.5" fill="#0f766e" fill-opacity="0.25"/>
<circle cx="1049.03" cy="464.09" r="2.5" fill="#0f766e" fill-opacity="0.25"/>
<circle cx="1049.03" cy="460.11" r="2.5" fill="#0f766e" fill-opacity="0.25"/>
<circle cx="1049.03" cy="457.72" r="2.5" fill="#0f766e" fill-opacity="0.25"/>
<circle cx="1049.03" cy="456.40" r="2.5" fill="#0f766e" fill-opacity="0.25"/>
<circle cx="1049.03" cy="455.71" r="2.5" fill="#0f766e" fill-opacity="0.25"/>
<circle cx="1071.02" cy="479.51" r="2.5" fill="#0f766e" fill-opacity="0.25"/>
<circle cx="1071.02" cy="477.47" r="2.5" fill="#0f766e" fill-opacity="0.25"/>
<circle cx="1071.02" cy="476.25" r="2.5" fill="#0f766e" fill-opacity="0.25"/>
<circle cx="1071.02" cy="475.58" r="2.5" fill="#0f766e" fill-opacity="0.25"/>
<circle cx="1071.02" cy="475.23" r="2.5" fill="#0f766e" fill-opacity="0.25"/>
<circle cx="1071.02" cy="475.05" r="2.5" fill="#0f766e" fill-opacity="0.25"/>
<circle cx="1083.21" cy="486.57" r="2.5" fill="#0f766e" fill-opacity="0.25"/>
<circle cx="1083.21" cy="485.95" r="2.5" fill="#0f766e" fill-opacity="0.25"/>
<circle cx="1083.21" cy="485.61" r="2.5" fill="#0f766e" fill-opacity="0.25"/>
<circle cx="1083.21" cy="485.43" r="2.5" fill="#0f766e" fill-opacity="0.25"/>
<circle cx="1083.21" cy="485.34" r="2.5" fill="#0f766e" fill-opacity="0.25"/>
<circle cx="1083.21" cy="485.29" r="2.5" fill="#0f766e" fill-opacity="0.25"/>
<circle cx="1087.98" cy="491.28" r="2.5" fill="#0f766e" fill-opacity="0.25"/>
<circle cx="1087.98" cy="490.97" r="2.5" fill="#0f766e" fill-opacity="0.25"/>
<circle cx="1087.98" cy="490.80" r="2.5" fill="#0f766e" fill-opacity="0.25"/>
<circle cx="1087.98" cy="490.71" r="2.5" fill="#0f766e" fill-opacity="0.25"/>
<circle cx="1087.98" cy="490.67" r="2.5" fill="#0f766e" fill-opacity="0.25"/>
<circle cx="1087.98" cy="490.64" r="2.5" fill="#0f766e" fill-opacity="0.25"/>
<circle cx="1090.39" cy="493.64" r="2.5" fill="#0f766e" fill-opacity="0.25"/>
<circle cx="1090.39" cy="493.48" r="2.5" fill="#0f766e" fill-opacity="0.25"/>
<circle cx="1090.39" cy="493.40" r="2.5" fill="#0f766e" fill-opacity="0.25"/>
<circle cx="1090.39" cy="493.36" r="2.5" fill="#0f766e" fill-opacity="0.25"/>
<circle cx="1090.39" cy="493.33" r="2.5" fill="#0f766e" fill-opacity="0.25"/>
<circle cx="1090.39" cy="493.32" r="2.5" fill="#0f766e" fill-opacity="0.25"/>
<circle cx="1091.59" cy="494.82" r="2.5" fill="#0f766e" fill-opacity="0.25"/>
<circle cx="1091.59" cy="494.74" r="2.5" fill="#0f766e" fill-opacity="0.25"/>
<circle cx="1091.59" cy="494.70" r="2.5" fill="#0f766e" fill-opacity="0.25"/>
<circle cx="1091.59" cy="494.68" r="2.5" fill="#0f766e" fill-opacity="0.25"/>
<circle cx="1091.59" cy="494.67" r="2.5" fill="#0f766e" fill-opacity="0.25"/>
<circle cx="1091.59" cy="494.66" r="2.5" fill="#0f766e" fill-opacity="0.25"/>
<polyline points="659.63,207.39 762.32,215.85 864.16,282.90 951.21,362.83 1011.29,420.81 1049.03,455.71 1071.02,475.05 1083.21,485.29 1087.98,490.64 1090.39,493.32 1091.59,494.66" fill="none" stroke="#0f766e" stroke-width="2.2"/>
<circle cx="659.63" cy="207.39" r="3.2" fill="#0f766e" fill-opacity="0.95"/>
<circle cx="762.32" cy="215.85" r="3.2" fill="#0f766e" fill-opacity="0.95"/>
<circle cx="864.16" cy="282.90" r="3.2" fill="#0f766e" fill-opacity="0.95"/>
<circle cx="951.21" cy="362.83" r="3.2" fill="#0f766e" fill-opacity="0.95"/>
<circle cx="1011.29" cy="420.81" r="3.2" fill="#0f766e" fill-opacity="0.95"/>
<circle cx="1049.03" cy="455.71" r="3.2" fill="#0f766e" fill-opacity="0.95"/>
<circle cx="1071.02" cy="475.05" r="3.2" fill="#0f766e" fill-opacity="0.95"/>
<circle cx="1083.21" cy="485.29" r="3.2" fill="#0f766e" fill-opacity="0.95"/>
<circle cx="1087.98" cy="490.64" r="3.2" fill="#0f766e" fill-opacity="0.95"/>
<circle cx="1090.39" cy="493.32" r="3.2" fill="#0f766e" fill-opacity="0.95"/>
<circle cx="1091.59" cy="494.66" r="3.2" fill="#0f766e" fill-opacity="0.95"/>
<polyline points="72.00,101.16 157.65,120.54 237.02,246.71 237.02,246.71 300.88,352.51 300.88,352.51 300.88,352.51 342.97,418.06 342.97,418.06 342.97,418.06 342.97,418.06 368.62,454.99 368.62,454.99 368.62,454.99 368.62,454.99 368.62,454.99 383.30,474.86 383.30,474.86 383.30,474.86 383.30,474.86 383.30,474.86 383.30,474.86 391.36,485.24 391.36,485.24 391.36,485.24 391.36,485.24 391.36,485.24 391.36,485.24 394.49,490.62 394.49,490.62 394.49,490.62 394.49,490.62 394.49,490.62 394.49,490.62 396.07,493.31 396.07,493.31 396.07,493.31 396.07,493.31 396.07,493.31 396.07,493.31 396.86,494.66 396.86,494.66 396.86,494.66 396.86,494.66 396.86,494.66 396.86,494.66" fill="none" stroke="#7c3aed" stroke-width="2.2"/>
<circle cx="72.00" cy="101.16" r="3.0" fill="#7c3aed" fill-opacity="0.95"/>
<circle cx="157.65" cy="120.54" r="3.0" fill="#7c3aed" fill-opacity="0.95"/>
<circle cx="237.02" cy="246.71" r="3.0" fill="#7c3aed" fill-opacity="0.95"/>
<circle cx="237.02" cy="246.71" r="3.0" fill="#7c3aed" fill-opacity="0.95"/>
<circle cx="300.88" cy="352.51" r="3.0" fill="#7c3aed" fill-opacity="0.95"/>
<circle cx="300.88" cy="352.51" r="3.0" fill="#7c3aed" fill-opacity="0.95"/>
<circle cx="300.88" cy="352.51" r="3.0" fill="#7c3aed" fill-opacity="0.95"/>
<circle cx="342.97" cy="418.06" r="3.0" fill="#7c3aed" fill-opacity="0.95"/>
<circle cx="342.97" cy="418.06" r="3.0" fill="#7c3aed" fill-opacity="0.95"/>
<circle cx="342.97" cy="418.06" r="3.0" fill="#7c3aed" fill-opacity="0.95"/>
<circle cx="342.97" cy="418.06" r="3.0" fill="#7c3aed" fill-opacity="0.95"/>
<circle cx="368.62" cy="454.99" r="3.0" fill="#7c3aed" fill-opacity="0.95"/>
<circle cx="368.62" cy="454.99" r="3.0" fill="#7c3aed" fill-opacity="0.95"/>
<circle cx="368.62" cy="454.99" r="3.0" fill="#7c3aed" fill-opacity="0.95"/>
<circle cx="368.62" cy="454.99" r="3.0" fill="#7c3aed" fill-opacity="0.95"/>
<circle cx="368.62" cy="454.99" r="3.0" fill="#7c3aed" fill-opacity="0.95"/>
<circle cx="383.30" cy="474.86" r="3.0" fill="#7c3aed" fill-opacity="0.95"/>
<circle cx="383.30" cy="474.86" r="3.0" fill="#7c3aed" fill-opacity="0.95"/>
<circle cx="383.30" cy="474.86" r="3.0" fill="#7c3aed" fill-opacity="0.95"/>
<circle cx="383.30" cy="474.86" r="3.0" fill="#7c3aed" fill-opacity="0.95"/>
<circle cx="383.30" cy="474.86" r="3.0" fill="#7c3aed" fill-opacity="0.95"/>
<circle cx="383.30" cy="474.86" r="3.0" fill="#7c3aed" fill-opacity="0.95"/>
<circle cx="391.36" cy="485.24" r="3.0" fill="#7c3aed" fill-opacity="0.95"/>
<circle cx="391.36" cy="485.24" r="3.0" fill="#7c3aed" fill-opacity="0.95"/>
<circle cx="391.36" cy="485.24" r="3.0" fill="#7c3aed" fill-opacity="0.95"/>
<circle cx="391.36" cy="485.24" r="3.0" fill="#7c3aed" fill-opacity="0.95"/>
<circle cx="391.36" cy="485.24" r="3.0" fill="#7c3aed" fill-opacity="0.95"/>
<circle cx="391.36" cy="485.24" r="3.0" fill="#7c3aed" fill-opacity="0.95"/>
<circle cx="394.49" cy="490.62" r="3.0" fill="#7c3aed" fill-opacity="0.95"/>
<circle cx="394.49" cy="490.62" r="3.0" fill="#7c3aed" fill-opacity="0.95"/>
<circle cx="394.49" cy="490.62" r="3.0" fill="#7c3aed" fill-opacity="0.95"/>
<circle cx="394.49" cy="490.62" r="3.0" fill="#7c3aed" fill-opacity="0.95"/>
<circle cx="394.49" cy="490.62" r="3.0" fill="#7c3aed" fill-opacity="0.95"/>
<circle cx="394.49" cy="490.62" r="3.0" fill="#7c3aed" fill-opacity="0.95"/>
<circle cx="396.07" cy="493.31" r="3.0" fill="#7c3aed" fill-opacity="0.95"/>
<circle cx="396.07" cy="493.31" r="3.0" fill="#7c3aed" fill-opacity="0.95"/>
<circle cx="396.07" cy="493.31" r="3.0" fill="#7c3aed" fill-opacity="0.95"/>
<circle cx="396.07" cy="493.31" r="3.0" fill="#7c3aed" fill-opacity="0.95"/>
<circle cx="396.07" cy="493.31" r="3.0" fill="#7c3aed" fill-opacity="0.95"/>
<circle cx="396.07" cy="493.31" r="3.0" fill="#7c3aed" fill-opacity="0.95"/>
<circle cx="396.86" cy="494.66" r="3.0" fill="#7c3aed" fill-opacity="0.95"/>
<circle cx="396.86" cy="494.66" r="3.0" fill="#7c3aed" fill-opacity="0.95"/>
<circle cx="396.86" cy="494.66" r="3.0" fill="#7c3aed" fill-opacity="0.95"/>
<circle cx="396.86" cy="494.66" r="3.0" fill="#7c3aed" fill-opacity="0.95"/>
<circle cx="396.86" cy="494.66" r="3.0" fill="#7c3aed" fill-opacity="0.95"/>
<circle cx="396.86" cy="494.66" r="3.0" fill="#7c3aed" fill-opacity="0.95"/>
<circle cx="645.00" cy="221.59" r="2.5" fill="#7c3aed" fill-opacity="0.25"/>
<circle cx="730.65" cy="229.25" r="2.5" fill="#7c3aed" fill-opacity="0.25"/>
<circle cx="810.02" cy="321.55" r="2.5" fill="#7c3aed" fill-opacity="0.25"/>
<circle cx="810.02" cy="290.74" r="2.5" fill="#7c3aed" fill-opacity="0.25"/>
<circle cx="873.88" cy="394.45" r="2.5" fill="#7c3aed" fill-opacity="0.25"/>
<circle cx="873.88" cy="377.07" r="2.5" fill="#7c3aed" fill-opacity="0.25"/>
<circle cx="873.88" cy="365.94" r="2.5" fill="#7c3aed" fill-opacity="0.25"/>
<circle cx="915.97" cy="440.52" r="2.5" fill="#7c3aed" fill-opacity="0.25"/>
<circle cx="915.97" cy="431.18" r="2.5" fill="#7c3aed" fill-opacity="0.25"/>
<circle cx="915.97" cy="425.22" r="2.5" fill="#7c3aed" fill-opacity="0.25"/>
<circle cx="915.97" cy="421.81" r="2.5" fill="#7c3aed" fill-opacity="0.25"/>
<circle cx="941.62" cy="466.77" r="2.5" fill="#7c3aed" fill-opacity="0.25"/>
<circle cx="941.62" cy="461.87" r="2.5" fill="#7c3aed" fill-opacity="0.25"/>
<circle cx="941.62" cy="458.74" r="2.5" fill="#7c3aed" fill-opacity="0.25"/>
<circle cx="941.62" cy="456.96" r="2.5" fill="#7c3aed" fill-opacity="0.25"/>
<circle cx="941.62" cy="456.00" r="2.5" fill="#7c3aed" fill-opacity="0.25"/>
<circle cx="956.30" cy="480.94" r="2.5" fill="#7c3aed" fill-opacity="0.25"/>
<circle cx="956.30" cy="478.41" r="2.5" fill="#7c3aed" fill-opacity="0.25"/>
<circle cx="956.30" cy="476.80" r="2.5" fill="#7c3aed" fill-opacity="0.25"/>
<circle cx="956.30" cy="475.88" r="2.5" fill="#7c3aed" fill-opacity="0.25"/>
<circle cx="956.30" cy="475.38" r="2.5" fill="#7c3aed" fill-opacity="0.25"/>
<circle cx="956.30" cy="475.12" r="2.5" fill="#7c3aed" fill-opacity="0.25"/>
<circle cx="964.35" cy="487.05" r="2.5" fill="#7c3aed" fill-opacity="0.25"/>
<circle cx="964.35" cy="486.23" r="2.5" fill="#7c3aed" fill-opacity="0.25"/>
<circle cx="964.35" cy="485.76" r="2.5" fill="#7c3aed" fill-opacity="0.25"/>
<circle cx="964.35" cy="485.51" r="2.5" fill="#7c3aed" fill-opacity="0.25"/>
<circle cx="964.35" cy="485.38" r="2.5" fill="#7c3aed" fill-opacity="0.25"/>
<circle cx="964.35" cy="485.31" r="2.5" fill="#7c3aed" fill-opacity="0.25"/>
<circle cx="967.49" cy="491.52" r="2.5" fill="#7c3aed" fill-opacity="0.25"/>
<circle cx="967.49" cy="491.11" r="2.5" fill="#7c3aed" fill-opacity="0.25"/>
<circle cx="967.49" cy="490.88" r="2.5" fill="#7c3aed" fill-opacity="0.25"/>
<circle cx="967.49" cy="490.75" r="2.5" fill="#7c3aed" fill-opacity="0.25"/>
<circle cx="967.49" cy="490.69" r="2.5" fill="#7c3aed" fill-opacity="0.25"/>
<circle cx="967.49" cy="490.66" r="2.5" fill="#7c3aed" fill-opacity="0.25"/>
<circle cx="969.07" cy="493.76" r="2.5" fill="#7c3aed" fill-opacity="0.25"/>
<circle cx="969.07" cy="493.55" r="2.5" fill="#7c3aed" fill-opacity="0.25"/>
<circle cx="969.07" cy="493.44" r="2.5" fill="#7c3aed" fill-opacity="0.25"/>
<circle cx="969.07" cy="493.38" r="2.5" fill="#7c3aed" fill-opacity="0.25"/>
<circle cx="969.07" cy="493.34" r="2.5" fill="#7c3aed" fill-opacity="0.25"/>
<circle cx="969.07" cy="493.33" r="2.5" fill="#7c3aed" fill-opacity="0.25"/>
<circle cx="969.86" cy="494.88" r="2.5" fill="#7c3aed" fill-opacity="0.25"/>
<circle cx="969.86" cy="494.78" r="2.5" fill="#7c3aed" fill-opacity="0.25"/>
<circle cx="969.86" cy="494.72" r="2.5" fill="#7c3aed" fill-opacity="0.25"/>
<circle cx="969.86" cy="494.69" r="2.5" fill="#7c3aed" fill-opacity="0.25"/>
<circle cx="969.86" cy="494.67" r="2.5" fill="#7c3aed" fill-opacity="0.25"/>
<circle cx="969.86" cy="494.66" r="2.5" fill="#7c3aed" fill-opacity="0.25"/>
<polyline points="645.00,221.59 730.65,229.25 810.02,290.74 873.88,365.94 915.97,421.81 941.62,456.00 956.30,475.12 964.35,485.31 967.49,490.66 969.07,493.33 969.86,494.66" fill="none" stroke="#7c3aed" stroke-width="2.2"/>
<circle cx="645.00" cy="221.59" r="3.2" fill="#7c3aed" fill-opacity="0.95"/>
<circle cx="730.65" cy="229.25" r="3.2" fill="#7c3aed" fill-opacity="0.95"/>
<circle cx="810.02" cy="290.74" r="3.2" fill="#7c3aed" fill-opacity="0.95"/>
<circle cx="873.88" cy="365.94" r="3.2" fill="#7c3aed" fill-opacity="0.95"/>
<circle cx="915.97" cy="421.81" r="3.2" fill="#7c3aed" fill-opacity="0.95"/>
<circle cx="941.62" cy="456.00" r="3.2" fill="#7c3aed" fill-opacity="0.95"/>
<circle cx="956.30" cy="475.12" r="3.2" fill="#7c3aed" fill-opacity="0.95"/>
<circle cx="964.35" cy="485.31" r="3.2" fill="#7c3aed" fill-opacity="0.95"/>
<circle cx="967.49" cy="490.66" r="3.2" fill="#7c3aed" fill-opacity="0.95"/>
<circle cx="969.07" cy="493.33" r="3.2" fill="#7c3aed" fill-opacity="0.95"/>
<circle cx="969.86" cy="494.66" r="3.2" fill="#7c3aed" fill-opacity="0.95"/>
<polyline points="110.46,120.54 162.61,246.71 162.61,246.71 201.18,352.51 201.18,352.51 201.18,352.51 225.12,418.06 225.12,418.06 225.12,418.06 225.12,418.06 239.17,454.99 239.17,454.99 239.17,454.99 239.17,454.99 239.17,454.99 247.04,474.86 247.04,474.86 247.04,474.86 247.04,474.86 247.04,474.86 247.04,474.86 251.31,485.24 251.31,485.24 251.31,485.24 251.31,485.24 251.31,485.24 251.31,485.24 252.96,490.62 252.96,490.62 252.96,490.62 252.96,490.62 252.96,490.62 252.96,490.62 253.78,493.31 253.78,493.31 253.78,493.31 253.78,493.31 253.78,493.31 253.78,493.31 254.20,494.66 254.20,494.66 254.20,494.66 254.20,494.66 254.20,494.66 254.20,494.66" fill="none" stroke="#d97706" stroke-width="2.2"/>
<circle cx="110.46" cy="120.54" r="3.0" fill="#d97706" fill-opacity="0.95"/>
<circle cx="162.61" cy="246.71" r="3.0" fill="#d97706" fill-opacity="0.95"/>
<circle cx="162.61" cy="246.71" r="3.0" fill="#d97706" fill-opacity="0.95"/>
<circle cx="201.18" cy="352.51" r="3.0" fill="#d97706" fill-opacity="0.95"/>
<circle cx="201.18" cy="352.51" r="3.0" fill="#d97706" fill-opacity="0.95"/>
<circle cx="201.18" cy="352.51" r="3.0" fill="#d97706" fill-opacity="0.95"/>
<circle cx="225.12" cy="418.06" r="3.0" fill="#d97706" fill-opacity="0.95"/>
<circle cx="225.12" cy="418.06" r="3.0" fill="#d97706" fill-opacity="0.95"/>
<circle cx="225.12" cy="418.06" r="3.0" fill="#d97706" fill-opacity="0.95"/>
<circle cx="225.12" cy="418.06" r="3.0" fill="#d97706" fill-opacity="0.95"/>
<circle cx="239.17" cy="454.99" r="3.0" fill="#d97706" fill-opacity="0.95"/>
<circle cx="239.17" cy="454.99" r="3.0" fill="#d97706" fill-opacity="0.95"/>
<circle cx="239.17" cy="454.99" r="3.0" fill="#d97706" fill-opacity="0.95"/>
<circle cx="239.17" cy="454.99" r="3.0" fill="#d97706" fill-opacity="0.95"/>
<circle cx="239.17" cy="454.99" r="3.0" fill="#d97706" fill-opacity="0.95"/>
<circle cx="247.04" cy="474.86" r="3.0" fill="#d97706" fill-opacity="0.95"/>
<circle cx="247.04" cy="474.86" r="3.0" fill="#d97706" fill-opacity="0.95"/>
<circle cx="247.04" cy="474.86" r="3.0" fill="#d97706" fill-opacity="0.95"/>
<circle cx="247.04" cy="474.86" r="3.0" fill="#d97706" fill-opacity="0.95"/>
<circle cx="247.04" cy="474.86" r="3.0" fill="#d97706" fill-opacity="0.95"/>
<circle cx="247.04" cy="474.86" r="3.0" fill="#d97706" fill-opacity="0.95"/>
<circle cx="251.31" cy="485.24" r="3.0" fill="#d97706" fill-opacity="0.95"/>
<circle cx="251.31" cy="485.24" r="3.0" fill="#d97706" fill-opacity="0.95"/>
<circle cx="251.31" cy="485.24" r="3.0" fill="#d97706" fill-opacity="0.95"/>
<circle cx="251.31" cy="485.24" r="3.0" fill="#d97706" fill-opacity="0.95"/>
<circle cx="251.31" cy="485.24" r="3.0" fill="#d97706" fill-opacity="0.95"/>
<circle cx="251.31" cy="485.24" r="3.0" fill="#d97706" fill-opacity="0.95"/>
<circle cx="252.96" cy="490.62" r="3.0" fill="#d97706" fill-opacity="0.95"/>
<circle cx="252.96" cy="490.62" r="3.0" fill="#d97706" fill-opacity="0.95"/>
<circle cx="252.96" cy="490.62" r="3.0" fill="#d97706" fill-opacity="0.95"/>
<circle cx="252.96" cy="490.62" r="3.0" fill="#d97706" fill-opacity="0.95"/>
<circle cx="252.96" cy="490.62" r="3.0" fill="#d97706" fill-opacity="0.95"/>
<circle cx="252.96" cy="490.62" r="3.0" fill="#d97706" fill-opacity="0.95"/>
<circle cx="253.78" cy="493.31" r="3.0" fill="#d97706" fill-opacity="0.95"/>
<circle cx="253.78" cy="493.31" r="3.0" fill="#d97706" fill-opacity="0.95"/>
<circle cx="253.78" cy="493.31" r="3.0" fill="#d97706" fill-opacity="0.95"/>
<circle cx="253.78" cy="493.31" r="3.0" fill="#d97706" fill-opacity="0.95"/>
<circle cx="253.78" cy="493.31" r="3.0" fill="#d97706" fill-opacity="0.95"/>
<circle cx="253.78" cy="493.31" r="3.0" fill="#d97706" fill-opacity="0.95"/>
<circle cx="254.20" cy="494.66" r="3.0" fill="#d97706" fill-opacity="0.95"/>
<circle cx="254.20" cy="494.66" r="3.0" fill="#d97706" fill-opacity="0.95"/>
<circle cx="254.20" cy="494.66" r="3.0" fill="#d97706" fill-opacity="0.95"/>
<circle cx="254.20" cy="494.66" r="3.0" fill="#d97706" fill-opacity="0.95"/>
<circle cx="254.20" cy="494.66" r="3.0" fill="#d97706" fill-opacity="0.95"/>
<circle cx="254.20" cy="494.66" r="3.0" fill="#d97706" fill-opacity="0.95"/>
<circle cx="683.46" cy="252.54" r="2.5" fill="#d97706" fill-opacity="0.25"/>
<circle cx="735.61" cy="340.95" r="2.5" fill="#d97706" fill-opacity="0.25"/>
<circle cx="735.61" cy="304.82" r="2.5" fill="#d97706" fill-opacity="0.25"/>
<circle cx="774.18" cy="407.37" r="2.5" fill="#d97706" fill-opacity="0.25"/>
<circle cx="774.18" cy="386.42" r="2.5" fill="#d97706" fill-opacity="0.25"/>
<circle cx="774.18" cy="371.74" r="2.5" fill="#d97706" fill-opacity="0.25"/>
<circle cx="798.12" cy="448.14" r="2.5" fill="#d97706" fill-opacity="0.25"/>
<circle cx="798.12" cy="436.70" r="2.5" fill="#d97706" fill-opacity="0.25"/>
<circle cx="798.12" cy="428.64" r="2.5" fill="#d97706" fill-opacity="0.25"/>
<circle cx="798.12" cy="423.74" r="2.5" fill="#d97706" fill-opacity="0.25"/>
<circle cx="812.17" cy="470.97" r="2.5" fill="#d97706" fill-opacity="0.25"/>
<circle cx="812.17" cy="464.91" r="2.5" fill="#d97706" fill-opacity="0.25"/>
<circle cx="812.17" cy="460.63" r="2.5" fill="#d97706" fill-opacity="0.25"/>
<circle cx="812.17" cy="458.02" r="2.5" fill="#d97706" fill-opacity="0.25"/>
<circle cx="812.17" cy="456.56" r="2.5" fill="#d97706" fill-opacity="0.25"/>
<circle cx="820.04" cy="483.16" r="2.5" fill="#d97706" fill-opacity="0.25"/>
<circle cx="820.04" cy="480.02" r="2.5" fill="#d97706" fill-opacity="0.25"/>
<circle cx="820.04" cy="477.80" r="2.5" fill="#d97706" fill-opacity="0.25"/>
<circle cx="820.04" cy="476.44" r="2.5" fill="#d97706" fill-opacity="0.25"/>
<circle cx="820.04" cy="475.68" r="2.5" fill="#d97706" fill-opacity="0.25"/>
<circle cx="820.04" cy="475.28" r="2.5" fill="#d97706" fill-opacity="0.25"/>
<circle cx="824.31" cy="487.89" r="2.5" fill="#d97706" fill-opacity="0.25"/>
<circle cx="824.31" cy="486.75" r="2.5" fill="#d97706" fill-opacity="0.25"/>
<circle cx="824.31" cy="486.05" r="2.5" fill="#d97706" fill-opacity="0.25"/>
<circle cx="824.31" cy="485.66" r="2.5" fill="#d97706" fill-opacity="0.25"/>
<circle cx="824.31" cy="485.46" r="2.5" fill="#d97706" fill-opacity="0.25"/>
<circle cx="824.31" cy="485.35" r="2.5" fill="#d97706" fill-opacity="0.25"/>
<circle cx="825.96" cy="491.94" r="2.5" fill="#d97706" fill-opacity="0.25"/>
<circle cx="825.96" cy="491.37" r="2.5" fill="#d97706" fill-opacity="0.25"/>
<circle cx="825.96" cy="491.02" r="2.5" fill="#d97706" fill-opacity="0.25"/>
<circle cx="825.96" cy="490.83" r="2.5" fill="#d97706" fill-opacity="0.25"/>
<circle cx="825.96" cy="490.73" r="2.5" fill="#d97706" fill-opacity="0.25"/>
<circle cx="825.96" cy="490.68" r="2.5" fill="#d97706" fill-opacity="0.25"/>
<circle cx="826.79" cy="493.97" r="2.5" fill="#d97706" fill-opacity="0.25"/>
<circle cx="826.79" cy="493.68" r="2.5" fill="#d97706" fill-opacity="0.25"/>
<circle cx="826.79" cy="493.51" r="2.5" fill="#d97706" fill-opacity="0.25"/>
<circle cx="826.79" cy="493.42" r="2.5" fill="#d97706" fill-opacity="0.25"/>
<circle cx="826.79" cy="493.36" r="2.5" fill="#d97706" fill-opacity="0.25"/>
<circle cx="826.79" cy="493.34" r="2.5" fill="#d97706" fill-opacity="0.25"/>
<circle cx="827.20" cy="494.98" r="2.5" fill="#d97706" fill-opacity="0.25"/>
<circle cx="827.20" cy="494.84" r="2.5" fill="#d97706" fill-opacity="0.25"/>
<circle cx="827.20" cy="494.76" r="2.5" fill="#d97706" fill-opacity="0.25"/>
<circle cx="827.20" cy="494.71" r="2.5" fill="#d97706" fill-opacity="0.25"/>
<circle cx="827.20" cy="494.68" r="2.5" fill="#d97706" fill-opacity="0.25"/>
<circle cx="827.20" cy="494.67" r="2.5" fill="#d97706" fill-opacity="0.25"/>
<polyline points="683.46,252.54 735.61,304.82 774.18,371.74 798.12,423.74 812.17,456.56 820.04,475.28 824.31,485.35 825.96,490.68 826.79,493.34 827.20,494.67" fill="none" stroke="#d97706" stroke-width="2.2"/>
<circle cx="683.46" cy="252.54" r="3.2" fill="#d97706" fill-opacity="0.95"/>
<circle cx="735.61" cy="304.82" r="3.2" fill="#d97706" fill-opacity="0.95"/>
<circle cx="774.18" cy="371.74" r="3.2" fill="#d97706" fill-opacity="0.95"/>
<circle cx="798.12" cy="423.74" r="3.2" fill="#d97706" fill-opacity="0.95"/>
<circle cx="812.17" cy="456.56" r="3.2" fill="#d97706" fill-opacity="0.95"/>
<circle cx="820.04" cy="475.28" r="3.2" fill="#d97706" fill-opacity="0.95"/>
<circle cx="824.31" cy="485.35" r="3.2" fill="#d97706" fill-opacity="0.95"/>
<circle cx="825.96" cy="490.68" r="3.2" fill="#d97706" fill-opacity="0.95"/>
<circle cx="826.79" cy="493.34" r="3.2" fill="#d97706" fill-opacity="0.95"/>
<circle cx="827.20" cy="494.67" r="3.2" fill="#d97706" fill-opacity="0.95"/>
<polyline points="76.98,120.54 113.86,246.71 139.67,352.51 139.67,352.51 155.09,418.06 155.09,418.06 155.09,418.06 163.95,454.99 163.95,454.99 163.95,454.99 163.95,454.99 168.85,474.86 168.85,474.86 168.85,474.86 168.85,474.86 168.85,474.86 171.48,485.24 171.48,485.24 171.48,485.24 171.48,485.24 171.48,485.24 171.48,485.24 172.50,490.62 172.50,490.62 172.50,490.62 172.50,490.62 172.50,490.62 172.50,490.62 173.01,493.31 173.01,493.31 173.01,493.31 173.01,493.31 173.01,493.31 173.01,493.31 173.26,494.66 173.26,494.66 173.26,494.66 173.26,494.66 173.26,494.66 173.26,494.66" fill="none" stroke="#dc2626" stroke-width="2.2"/>
<circle cx="76.98" cy="120.54" r="3.0" fill="#dc2626" fill-opacity="0.95"/>
<circle cx="113.86" cy="246.71" r="3.0" fill="#dc2626" fill-opacity="0.95"/>
<circle cx="139.67" cy="352.51" r="3.0" fill="#dc2626" fill-opacity="0.95"/>
<circle cx="139.67" cy="352.51" r="3.0" fill="#dc2626" fill-opacity="0.95"/>
<circle cx="155.09" cy="418.06" r="3.0" fill="#dc2626" fill-opacity="0.95"/>
<circle cx="155.09" cy="418.06" r="3.0" fill="#dc2626" fill-opacity="0.95"/>
<circle cx="155.09" cy="418.06" r="3.0" fill="#dc2626" fill-opacity="0.95"/>
<circle cx="163.95" cy="454.99" r="3.0" fill="#dc2626" fill-opacity="0.95"/>
<circle cx="163.95" cy="454.99" r="3.0" fill="#dc2626" fill-opacity="0.95"/>
<circle cx="163.95" cy="454.99" r="3.0" fill="#dc2626" fill-opacity="0.95"/>
<circle cx="163.95" cy="454.99" r="3.0" fill="#dc2626" fill-opacity="0.95"/>
<circle cx="168.85" cy="474.86" r="3.0" fill="#dc2626" fill-opacity="0.95"/>
<circle cx="168.85" cy="474.86" r="3.0" fill="#dc2626" fill-opacity="0.95"/>
<circle cx="168.85" cy="474.86" r="3.0" fill="#dc2626" fill-opacity="0.95"/>
<circle cx="168.85" cy="474.86" r="3.0" fill="#dc2626" fill-opacity="0.95"/>
<circle cx="168.85" cy="474.86" r="3.0" fill="#dc2626" fill-opacity="0.95"/>
<circle cx="171.48" cy="485.24" r="3.0" fill="#dc2626" fill-opacity="0.95"/>
<circle cx="171.48" cy="485.24" r="3.0" fill="#dc2626" fill-opacity="0.95"/>
<circle cx="171.48" cy="485.24" r="3.0" fill="#dc2626" fill-opacity="0.95"/>
<circle cx="171.48" cy="485.24" r="3.0" fill="#dc2626" fill-opacity="0.95"/>
<circle cx="171.48" cy="485.24" r="3.0" fill="#dc2626" fill-opacity="0.95"/>
<circle cx="171.48" cy="485.24" r="3.0" fill="#dc2626" fill-opacity="0.95"/>
<circle cx="172.50" cy="490.62" r="3.0" fill="#dc2626" fill-opacity="0.95"/>
<circle cx="172.50" cy="490.62" r="3.0" fill="#dc2626" fill-opacity="0.95"/>
<circle cx="172.50" cy="490.62" r="3.0" fill="#dc2626" fill-opacity="0.95"/>
<circle cx="172.50" cy="490.62" r="3.0" fill="#dc2626" fill-opacity="0.95"/>
<circle cx="172.50" cy="490.62" r="3.0" fill="#dc2626" fill-opacity="0.95"/>
<circle cx="172.50" cy="490.62" r="3.0" fill="#dc2626" fill-opacity="0.95"/>
<circle cx="173.01" cy="493.31" r="3.0" fill="#dc2626" fill-opacity="0.95"/>
<circle cx="173.01" cy="493.31" r="3.0" fill="#dc2626" fill-opacity="0.95"/>
<circle cx="173.01" cy="493.31" r="3.0" fill="#dc2626" fill-opacity="0.95"/>
<circle cx="173.01" cy="493.31" r="3.0" fill="#dc2626" fill-opacity="0.95"/>
<circle cx="173.01" cy="493.31" r="3.0" fill="#dc2626" fill-opacity="0.95"/>
<circle cx="173.01" cy="493.31" r="3.0" fill="#dc2626" fill-opacity="0.95"/>
<circle cx="173.26" cy="494.66" r="3.0" fill="#dc2626" fill-opacity="0.95"/>
<circle cx="173.26" cy="494.66" r="3.0" fill="#dc2626" fill-opacity="0.95"/>
<circle cx="173.26" cy="494.66" r="3.0" fill="#dc2626" fill-opacity="0.95"/>
<circle cx="173.26" cy="494.66" r="3.0" fill="#dc2626" fill-opacity="0.95"/>
<circle cx="173.26" cy="494.66" r="3.0" fill="#dc2626" fill-opacity="0.95"/>
<circle cx="173.26" cy="494.66" r="3.0" fill="#dc2626" fill-opacity="0.95"/>
<circle cx="649.98" cy="272.09" r="2.5" fill="#dc2626" fill-opacity="0.25"/>
<circle cx="686.86" cy="330.74" r="2.5" fill="#dc2626" fill-opacity="0.25"/>
<circle cx="712.67" cy="408.91" r="2.5" fill="#dc2626" fill-opacity="0.25"/>
<circle cx="712.67" cy="397.60" r="2.5" fill="#dc2626" fill-opacity="0.25"/>
<circle cx="728.09" cy="451.24" r="2.5" fill="#dc2626" fill-opacity="0.25"/>
<circle cx="728.09" cy="445.74" r="2.5" fill="#dc2626" fill-opacity="0.25"/>
<circle cx="728.09" cy="442.45" r="2.5" fill="#dc2626" fill-opacity="0.25"/>
<circle cx="736.95" cy="473.29" r="2.5" fill="#dc2626" fill-opacity="0.25"/>
<circle cx="736.95" cy="470.59" r="2.5" fill="#dc2626" fill-opacity="0.25"/>
<circle cx="736.95" cy="468.98" r="2.5" fill="#dc2626" fill-opacity="0.25"/>
<circle cx="736.95" cy="468.10" r="2.5" fill="#dc2626" fill-opacity="0.25"/>
<circle cx="741.85" cy="484.56" r="2.5" fill="#dc2626" fill-opacity="0.25"/>
<circle cx="741.85" cy="483.22" r="2.5" fill="#dc2626" fill-opacity="0.25"/>
<circle cx="741.85" cy="482.43" r="2.5" fill="#dc2626" fill-opacity="0.25"/>
<circle cx="741.85" cy="481.99" r="2.5" fill="#dc2626" fill-opacity="0.25"/>
<circle cx="741.85" cy="481.76" r="2.5" fill="#dc2626" fill-opacity="0.25"/>
<circle cx="744.48" cy="490.26" r="2.5" fill="#dc2626" fill-opacity="0.25"/>
<circle cx="744.48" cy="489.59" r="2.5" fill="#dc2626" fill-opacity="0.25"/>
<circle cx="744.48" cy="489.20" r="2.5" fill="#dc2626" fill-opacity="0.25"/>
<circle cx="744.48" cy="488.98" r="2.5" fill="#dc2626" fill-opacity="0.25"/>
<circle cx="744.48" cy="488.87" r="2.5" fill="#dc2626" fill-opacity="0.25"/>
<circle cx="744.48" cy="488.81" r="2.5" fill="#dc2626" fill-opacity="0.25"/>
<circle cx="745.50" cy="493.13" r="2.5" fill="#dc2626" fill-opacity="0.25"/>
<circle cx="745.50" cy="492.79" r="2.5" fill="#dc2626" fill-opacity="0.25"/>
<circle cx="745.50" cy="492.60" r="2.5" fill="#dc2626" fill-opacity="0.25"/>
<circle cx="745.50" cy="492.49" r="2.5" fill="#dc2626" fill-opacity="0.25"/>
<circle cx="745.50" cy="492.43" r="2.5" fill="#dc2626" fill-opacity="0.25"/>
<circle cx="745.50" cy="492.41" r="2.5" fill="#dc2626" fill-opacity="0.25"/>
<circle cx="746.01" cy="494.56" r="2.5" fill="#dc2626" fill-opacity="0.25"/>
<circle cx="746.01" cy="494.40" r="2.5" fill="#dc2626" fill-opacity="0.25"/>
<circle cx="746.01" cy="494.30" r="2.5" fill="#dc2626" fill-opacity="0.25"/>
<circle cx="746.01" cy="494.24" r="2.5" fill="#dc2626" fill-opacity="0.25"/>
<circle cx="746.01" cy="494.22" r="2.5" fill="#dc2626" fill-opacity="0.25"/>
<circle cx="746.01" cy="494.20" r="2.5" fill="#dc2626" fill-opacity="0.25"/>
<circle cx="746.26" cy="495.28" r="2.5" fill="#dc2626" fill-opacity="0.25"/>
<circle cx="746.26" cy="495.20" r="2.5" fill="#dc2626" fill-opacity="0.25"/>
<circle cx="746.26" cy="495.15" r="2.5" fill="#dc2626" fill-opacity="0.25"/>
<circle cx="746.26" cy="495.12" r="2.5" fill="#dc2626" fill-opacity="0.25"/>
<circle cx="746.26" cy="495.11" r="2.5" fill="#dc2626" fill-opacity="0.25"/>
<circle cx="746.26" cy="495.10" r="2.5" fill="#dc2626" fill-opacity="0.25"/>
<polyline points="649.98,272.09 686.86,330.74 712.67,397.60 728.09,442.45 736.95,468.10 741.85,481.76 744.48,488.81 745.50,492.41 746.01,494.20 746.26,495.10" fill="none" stroke="#dc2626" stroke-width="2.2"/>
<circle cx="649.98" cy="272.09" r="3.2" fill="#dc2626" fill-opacity="0.95"/>
<circle cx="686.86" cy="330.74" r="3.2" fill="#dc2626" fill-opacity="0.95"/>
<circle cx="712.67" cy="397.60" r="3.2" fill="#dc2626" fill-opacity="0.95"/>
<circle cx="728.09" cy="442.45" r="3.2" fill="#dc2626" fill-opacity="0.95"/>
<circle cx="736.95" cy="468.10" r="3.2" fill="#dc2626" fill-opacity="0.95"/>
<circle cx="741.85" cy="481.76" r="3.2" fill="#dc2626" fill-opacity="0.95"/>
<circle cx="744.48" cy="488.81" r="3.2" fill="#dc2626" fill-opacity="0.95"/>
<circle cx="745.50" cy="492.41" r="3.2" fill="#dc2626" fill-opacity="0.95"/>
<circle cx="746.01" cy="494.20" r="3.2" fill="#dc2626" fill-opacity="0.95"/>
<circle cx="746.26" cy="495.10" r="3.2" fill="#dc2626" fill-opacity="0.95"/>
<line x1="996" y1="76" x2="1020" y2="76" stroke="#2563eb" stroke-width="2.4"/>
<text x="1028" y="80" font-family="sans-serif" font-size="12" fill="#111827">link=4us</text>
<line x1="996" y1="96" x2="1020" y2="96" stroke="#0f766e" stroke-width="2.4"/>
<text x="1028" y="100" font-family="sans-serif" font-size="12" fill="#111827">link=6us</text>
<line x1="996" y1="116" x2="1020" y2="116" stroke="#7c3aed" stroke-width="2.4"/>
<text x="1028" y="120" font-family="sans-serif" font-size="12" fill="#111827">link=12us</text>
<line x1="996" y1="136" x2="1020" y2="136" stroke="#d97706" stroke-width="2.4"/>
<text x="1028" y="140" font-family="sans-serif" font-size="12" fill="#111827">link=24us</text>
<line x1="996" y1="156" x2="1020" y2="156" stroke="#dc2626" stroke-width="2.4"/>
<text x="1028" y="160" font-family="sans-serif" font-size="12" fill="#111827">link=36us</text>
<text x="590" y="542" text-anchor="middle" font-family="sans-serif" font-size="13">interactivity (tok/s/user)</text>
<text x="18" y="280" text-anchor="middle" transform="rotate(-90 18 280)" font-family="sans-serif" font-size="13">output tok/s/GPU</text>
<text x="896" y="522" text-anchor="middle" font-family="sans-serif" font-size="11" fill="#64748b">line = non-dominated DES subset of replayed analytical configs</text>
</svg>
